<?xml version="1.0" standalone="no"?>
<!DOCTYPE svg PUBLIC "-//W3C//DTD SVG 1.1//EN" "http://www.w3.org/Graphics/SVG/1.1/DTD/svg11.dtd" >
<svg xmlns="http://www.w3.org/2000/svg">
<metadata>Generated by IcoMoon</metadata>
<defs>
<font id="icomoon" horiz-adv-x="1024">
<font-face units-per-em="1024" ascent="960" descent="-64" />
<missing-glyph horiz-adv-x="1024" />
<glyph unicode="&#x20;" horiz-adv-x="512" d="" />
<glyph unicode="&#xe600;" glyph-name="user2" horiz-adv-x="805" d="M804.571 157.143q0-68.571-41.714-108.286t-110.857-39.714h-499.429q-69.143 0-110.857 39.714t-41.714 108.286q0 30.286 2 59.143t8 62.286 15.143 62 24.571 55.714 35.429 46.286 48.857 30.571 63.714 11.429q5.143 0 24-12.286t42.571-27.429 61.714-27.429 76.286-12.286 76.286 12.286 61.714 27.429 42.571 27.429 24 12.286q34.857 0 63.714-11.429t48.857-30.571 35.429-46.286 24.571-55.714 15.143-62 8-62.286 2-59.143zM621.714 667.429q0-90.857-64.286-155.143t-155.143-64.286-155.143 64.286-64.286 155.143 64.286 155.143 155.143 64.286 155.143-64.286 64.286-155.143z" />
<glyph unicode="&#xe601;" glyph-name="group" horiz-adv-x="1097" d="M338.857 448q-92.571-2.857-151.429-73.143h-76.571q-46.857 0-78.857 23.143t-32 67.714q0 201.714 70.857 201.714 3.429 0 24.857-12t55.714-24.286 68-12.286q38.286 0 76 13.143-2.857-21.143-2.857-37.714 0-79.429 46.286-146.286zM950.857 84q0-68.571-41.714-108.286t-110.857-39.714h-499.429q-69.143 0-110.857 39.714t-41.714 108.286q0 30.286 2 59.143t8 62.286 15.143 62 24.571 55.714 35.429 46.286 48.857 30.571 63.714 11.429q5.714 0 24.571-12.286t41.714-27.429 61.143-27.429 77.143-12.286 77.143 12.286 61.143 27.429 41.714 27.429 24.571 12.286q34.857 0 63.714-11.429t48.857-30.571 35.429-46.286 24.571-55.714 15.143-62 8-62.286 2-59.143zM365.714 813.714q0-60.571-42.857-103.429t-103.429-42.857-103.429 42.857-42.857 103.429 42.857 103.429 103.429 42.857 103.429-42.857 42.857-103.429zM768 594.286q0-90.857-64.286-155.143t-155.143-64.286-155.143 64.286-64.286 155.143 64.286 155.143 155.143 64.286 155.143-64.286 64.286-155.143zM1097.143 465.714q0-44.571-32-67.714t-78.857-23.143h-76.571q-58.857 70.286-151.429 73.143 46.286 66.857 46.286 146.286 0 16.571-2.857 37.714 37.714-13.143 76-13.143 33.714 0 68 12.286t55.714 24.286 24.857 12q70.857 0 70.857-201.714zM1024 813.714q0-60.571-42.857-103.429t-103.429-42.857-103.429 42.857-42.857 103.429 42.857 103.429 103.429 42.857 103.429-42.857 42.857-103.429z" />
<glyph unicode="&#xe602;" glyph-name="user-md" horiz-adv-x="805" d="M219.429 192q0-14.857-10.857-25.714t-25.714-10.857-25.714 10.857-10.857 25.714 10.857 25.714 25.714 10.857 25.714-10.857 10.857-25.714zM804.571 157.143q0-69.143-41.714-108.571t-110.857-39.429h-499.429q-69.143 0-110.857 39.429t-41.714 108.571q0 38.857 3.143 74.857t13.714 78.857 27.143 75.714 46.286 58.857 68.571 34.571q-12.571-29.714-12.571-68.571v-116q-33.143-11.429-53.143-40t-20-63.429q0-45.714 32-77.714t77.714-32 77.714 32 32 77.714q0 34.857-20.286 63.429t-52.857 40v116q0 35.429 14.286 53.143 75.429-59.429 168.571-59.429t168.571 59.429q14.286-17.714 14.286-53.143v-36.571q-60.571 0-103.429-42.857t-42.857-103.429v-50.857q-18.286-16.571-18.286-40.571 0-22.857 16-38.857t38.857-16 38.857 16 16 38.857q0 24-18.286 40.571v50.857q0 29.714 21.714 51.429t51.429 21.714 51.429-21.714 21.714-51.429v-50.857q-18.286-16.571-18.286-40.571 0-22.857 16-38.857t38.857-16 38.857 16 16 38.857q0 24-18.286 40.571v50.857q0 38.857-19.714 72.857t-53.429 53.429q0 5.714 0.286 24.286t0 27.429-1.429 23.714-4 26.857-7.429 22.857q38.857-8.571 68.571-34.571t46.286-58.857 27.143-75.714 13.714-78.857 3.143-74.857zM621.714 667.429q0-90.857-64.286-155.143t-155.143-64.286-155.143 64.286-64.286 155.143 64.286 155.143 155.143 64.286 155.143-64.286 64.286-155.143z" />
<glyph unicode="&#xe603;" glyph-name="ambulance" horiz-adv-x="1134" d="M365.714 155.429q0 30.286-21.429 51.714t-51.714 21.429-51.714-21.429-21.429-51.714 21.429-51.714 51.714-21.429 51.714 21.429 21.429 51.714zM146.286 448h219.429v146.286h-90.286q-8-1.143-12.571-5.143l-111.429-111.429q-4-6.857-5.143-12.571v-17.143zM877.714 155.429q0 30.286-21.429 51.714t-51.714 21.429-51.714-21.429-21.429-51.714 21.429-51.714 51.714-21.429 51.714 21.429 21.429 51.714zM950.857 539.429v109.714q0 8-5.143 13.143t-13.143 5.143h-128v128q0 8-5.143 13.143t-13.143 5.143h-109.714q-8 0-13.143-5.143t-5.143-13.143v-128h-128q-8 0-13.143-5.143t-5.143-13.143v-109.714q0-8 5.143-13.143t13.143-5.143h128v-128q0-8 5.143-13.143t13.143-5.143h109.714q8 0 13.143 5.143t5.143 13.143v128h128q8 0 13.143 5.143t5.143 13.143zM1097.143 850.286v-658.286q0-14.857-10.857-25.714t-25.714-10.857h-109.714q0-60.571-42.857-103.429t-103.429-42.857-103.429 42.857-42.857 103.429h-219.429q0-60.571-42.857-103.429t-103.429-42.857-103.429 42.857-42.857 103.429h-73.143q-14.857 0-25.714 10.857t-10.857 25.714 10.857 25.714 25.714 10.857v237.714q0 14.857 7.429 33.143t18.286 29.143l113.143 113.143q10.857 10.857 29.143 18.286t33.143 7.429h91.429v182.857q0 14.857 10.857 25.714t25.714 10.857h658.286q14.857 0 25.714-10.857t10.857-25.714z" />
<glyph unicode="&#xe604;" glyph-name="h-square" horiz-adv-x="878" d="M731.429 192v512q0 14.857-10.857 25.714t-25.714 10.857h-73.143q-14.857 0-25.714-10.857t-10.857-25.714v-182.857h-292.571v182.857q0 14.857-10.857 25.714t-25.714 10.857h-73.143q-14.857 0-25.714-10.857t-10.857-25.714v-512q0-14.857 10.857-25.714t25.714-10.857h73.143q14.857 0 25.714 10.857t10.857 25.714v182.857h292.571v-182.857q0-14.857 10.857-25.714t25.714-10.857h73.143q14.857 0 25.714 10.857t10.857 25.714zM877.714 722.286v-548.571q0-68-48.286-116.286t-116.286-48.286h-548.571q-68 0-116.286 48.286t-48.286 116.286v548.571q0 68 48.286 116.286t116.286 48.286h548.571q68 0 116.286-48.286t48.286-116.286z" />
<glyph unicode="&#xe605;" glyph-name="plus-square" horiz-adv-x="878" d="M731.429 411.429v73.143q0 14.857-10.857 25.714t-25.714 10.857h-182.857v182.857q0 14.857-10.857 25.714t-25.714 10.857h-73.143q-14.857 0-25.714-10.857t-10.857-25.714v-182.857h-182.857q-14.857 0-25.714-10.857t-10.857-25.714v-73.143q0-14.857 10.857-25.714t25.714-10.857h182.857v-182.857q0-14.857 10.857-25.714t25.714-10.857h73.143q14.857 0 25.714 10.857t10.857 25.714v182.857h182.857q14.857 0 25.714 10.857t10.857 25.714zM877.714 722.286v-548.571q0-68-48.286-116.286t-116.286-48.286h-548.571q-68 0-116.286 48.286t-48.286 116.286v548.571q0 68 48.286 116.286t116.286 48.286h548.571q68 0 116.286-48.286t48.286-116.286z" />
<glyph unicode="&#xe606;" glyph-name="skull" d="M256 21.334c0-47.146 38.186-85.334 85.334-85.334h320c47.146 0 85.334 38.186 85.334 85.334v24.96c0 20.032 13.866 36.906 32.618 41.366 102.42 15.806 180.714 104.34 180.714 211.006 0 48-15.786 92.374-42.666 128v145.92c0 213.974-186.24 387.414-416 387.414s-416-173.44-416-387.414v-145.92c-26.88-35.626-42.666-80-42.666-128 0-106.666 78.294-195.2 180.694-211.008 18.774-4.458 32.64-21.334 32.64-41.366l-0.002-24.958zM213.334 448c0 58.88 47.786 106.666 106.666 106.666s106.666-47.786 106.666-106.666-47.786-106.666-106.666-106.666-106.666 47.786-106.666 106.666zM576 448c0 58.88 47.786 106.666 106.666 106.666s106.666-47.786 106.666-106.666-47.786-106.666-106.666-106.666-106.666 47.786-106.666 106.666zM396.138 220.16l75.114 75.094c16.64 16.64 43.52 16.64 60.16 0l75.094-75.094c16.214-16.214 16.214-42.454 0-58.666s-42.454-16.214-58.666 0l-46.506 46.506-46.528-46.506c-16.192-16.214-42.432-16.214-58.666 0-16.172 16.212-16.172 42.474-0.002 58.666z" />
<glyph unicode="&#xe607;" glyph-name="user3" d="M889.366 222.080c-44.8 58.454-98.986 96.426-176.618 117.952l-72.748-254.698c0-23.466-19.2-42.666-42.666-42.666s-42.666 19.2-42.666 42.666v202.666c0 29.44-23.894 53.334-53.334 53.334s-53.334-23.894-53.334-53.334v-202.666c0-23.466-19.2-42.666-42.666-42.666s-42.666 19.2-42.666 42.666l-72.746 254.698c-77.654-21.76-131.84-59.498-176.64-117.952-17.708-23.040-27.308-69.334-27.948-94.080v-106.666c0-47.146 38.186-85.334 85.334-85.334h661.334c47.146 0 85.334 38.186 85.334 85.334v106.666c-0.642 24.746-10.242 71.040-27.97 94.080zM501.334 426.666c143.786 0 224 183.040 224 307.628s-100.268 225.706-224 225.706-224-101.12-224-225.706 77.652-307.628 224-307.628z" />
<glyph unicode="&#xe608;" glyph-name="medicine" d="M0 21.334c0-47.146 38.186-85.334 85.334-85.334h853.334c47.146 0 85.334 38.186 85.334 85.334l-0.002 640c0 47.146-38.186 85.334-85.334 85.334h-170.666v127.998c0 47.146-38.186 85.334-85.334 85.334h-341.332c-47.146 0-85.334-38.186-85.334-85.334v-128h-170.666c-47.146 0-85.334-38.186-85.334-85.334v-639.998zM661.334 746.666h-298.668v59.734c0 26.026 20.908 46.934 46.934 46.934h204.8c26.026 0 46.934-20.908 46.934-46.934v-59.734zM302.934 448h102.4v102.4c0 26.026 20.906 46.934 46.934 46.934h119.466c26.026 0 46.934-20.906 46.934-46.934l-0.002-102.4h102.4c26.026 0 46.934-20.906 46.934-46.934v-119.466c0-26.026-20.906-46.934-46.934-46.934h-102.4v-102.4c0-26.026-20.906-46.934-46.934-46.934h-119.466c-26.026 0-46.934 20.906-46.934 46.934l0.002 102.4h-102.4c-26.026 0-46.934 20.906-46.934 46.934v119.466c0 26.028 20.906 46.934 46.934 46.934z" />
<glyph unicode="&#xe609;" glyph-name="lightning" d="M573.654 576l85.76 328.96c1.28 4.032 1.92 8.342 1.92 12.8 0 23.232-18.774 42.24-42.048 42.24-13.206 0-24.96-5.974-32.618-15.574l-428.162-555.306c-5.76-7.254-9.172-16.426-9.172-26.454 0-23.466 19.2-42.666 42.666-42.666h258.326l-85.76-328.96c-1.302-4.054-1.92-8.342-1.92-12.8 0.020-23.254 18.794-42.24 42.048-42.24 13.226 0 24.96 5.952 32.64 15.574l428.138 555.306c5.782 7.254 9.194 16.406 9.194 26.454 0 23.466-19.2 42.666-42.666 42.666h-258.346z" />
<glyph unicode="&#xe60a;" glyph-name="droplet2" d="M170.666 260.694c0-179.392 148.054-324.694 330.668-324.694 182.634 0 330.666 145.302 330.666 324.694 0 229.972-256.618 379.306-277.334 635.306v10.666c0 29.44-23.892 53.334-53.332 53.334s-53.334-23.894-53.334-53.334v-10.666c-21.334-256-277.334-405.334-277.334-635.306zM547.2 128c46.080 10.666 82.752 49.92 93.418 92.8 3.648 20.054 21.142 35.2 42.048 35.2 23.466 0 42.666-19.2 42.666-42.666 0-30.698-25.814-77.44-60.992-112.426-34.58-34.134-75.754-58.242-109.674-58.242-23.466 0-42.666 19.84-42.666 43.286 0 20.928 15.146 38.422 35.2 42.048z" />
<glyph unicode="&#xe60b;" glyph-name="tag-stroke" d="M0 960v-424.736l599.264-599.264c0 0 0 345.376 0 424.64 79.264 0 424.736 0 424.736 0l-599.264 599.36h-424.736zM377.504 846.016c24.736-24.64 252.128-252.256 371.264-371.36-99.264 0-263.488 0-263.488 0s0-164.256 0-263.264c-119.168 118.976-346.528 346.496-371.296 370.976 0 33.76 0 190.752 0 263.616 72.896 0.032 229.76 0.032 263.52 0.032zM374.368 684.384c0-54.496-44.256-98.752-98.624-98.752-54.496 0-98.752 44.256-98.752 98.752 0 54.368 44.256 98.496 98.752 98.496 54.368 0 98.624-44.128 98.624-98.496z" />
<glyph unicode="&#xe60c;" glyph-name="tag-fill" d="M424.864 960h-424.864v-424.864l599.008-599.136v424.864h424.992l-599.136 599.136zM233.984 604.128c-67.264 0-121.76 54.496-121.76 121.76s54.496 121.76 121.76 121.76 121.76-54.496 121.76-121.76-54.496-121.76-121.76-121.76z" />
<glyph unicode="&#xe60d;" glyph-name="chat" horiz-adv-x="1344" d="M1140.864 511.264c-8.448 2.624-17.408-1.984-20.096-10.4-2.656-8.416 1.984-17.408 10.4-20.096 125.056-39.84 180.832-99.264 180.832-192.768 0-83.168-75.872-147.712-121.056-178.816-4.352-3.008-6.944-7.904-6.944-13.184v-122.336c-23.36 8.704-64.096 28.48-100.032 68.96-3.744 4.192-9.44 6.112-14.976 5.088-9.12-1.76-18.432-4.256-27.872-6.784-16.32-4.384-33.152-8.928-49.12-8.928-82.176 0-139.712 17.664-198.528 60.896-7.168 5.248-17.12 3.68-22.368-3.424-5.248-7.136-3.712-17.12 3.392-22.368 64.864-47.68 127.872-67.104 217.504-67.104 20.192 0 39.136 5.088 57.44 10.016 5.696 1.568 11.36 3.104 16.96 4.416 59.808-63.168 127.456-77.536 130.4-78.112 1.056-0.224 2.112-0.32 3.2-0.32 3.648 0 7.264 1.248 10.112 3.616 3.744 3.040 5.888 7.584 5.888 12.384v135.648c82.624 58.912 128 129.824 128 200.352 0 108.192-64.544 179.136-203.136 223.264zM1056 528c0 246.272-224.576 432-522.336 432-299.264 0-533.664-189.792-533.664-432.064 0-145.248 102.752-249.312 192-312.288v-212.352c0-5.44 2.752-10.464 7.296-13.44 2.656-1.696 5.664-2.56 8.704-2.56 2.208 0 4.448 0.48 6.56 1.408 4.672 2.080 113.888 51.712 207.328 153.888 40.48-7.52 86.272-14.752 127.808-14.752 302.816 0 506.304 160.832 506.304 400.16zM549.664 159.84c-41.92 0-89.568 8.032-130.656 15.872-5.536 0.992-11.232-0.896-14.976-5.088-65.6-73.984-142.688-120.992-180.032-141.248v194.624c0 5.28-2.592 10.176-6.944 13.184-84.416 58.080-185.056 155.616-185.056 290.752 0 224.352 220.352 400.064 501.664 400.064 279.552 0 490.336-171.968 490.336-400 0-220.224-190.624-368.16-474.336-368.16zM528 592c-35.296 0-64-28.704-64-64s28.704-64 64-64 64 28.704 64 64-28.704 64-64 64zM528 496c-17.632 0-32 14.336-32 32s14.368 32 32 32 32-14.336 32-32-14.368-32-32-32zM752 592c-35.296 0-64-28.704-64-64s28.704-64 64-64 64 28.704 64 64-28.704 64-64 64zM752 496c-17.632 0-32 14.336-32 32s14.368 32 32 32 32-14.336 32-32-14.368-32-32-32zM304 588.96c-35.296 0-64-28.704-64-64s28.704-64 64-64 64 28.704 64 64-28.704 64-64 64zM304 492.96c-17.632 0-32 14.336-32 32s14.368 32 32 32 32-14.336 32-32-14.368-32-32-32z" />
<glyph unicode="&#xe60e;" glyph-name="tag" d="M876.64 444.416l-391.2 388.512h-356.512l-0.832-356.064 386.496-394.528c25.408-25.408 66.272-25.76 91.296-0.736l271.488 271.52c24.992 24.992 24.672 65.888-0.736 91.296zM223.424 671.872c0 35.328 28.672 64 64 64s64-28.672 64-64c0-35.36-28.672-64-64-64s-64 28.64-64 64zM571.616 225.536l-248.896 248.896 22.624 22.624 248.896-248.896-22.624-22.624zM639.488 293.408l-248.896 248.896 22.656 22.624 248.864-248.896-22.624-22.624zM707.36 361.312l-248.864 248.896 22.624 22.624 248.864-248.896-22.624-22.624z" />
<glyph unicode="&#xe60f;" glyph-name="tag2" d="M925.056 333.568l-297.952-297.952c-25.312-25.312-66.368-25.312-91.68 0l-365.248 365.28-90.24 279.328 65.92 65.92 126.304-126.304c-3.392-24.32 3.968-49.824 22.656-68.512 31.648-31.648 82.944-31.648 114.592 0 31.616 31.648 31.616 82.944 0 114.592-18.688 18.688-44.192 26.016-68.512 22.656l-126.304 126.304 64.448 64.48 280.768-88.8 365.248-365.28c25.312-25.344 25.312-66.368 0-91.712zM363.552 597.152c-6.336-6.336-16.576-6.336-22.912 0l-252.128 252.128c-6.336 6.336-6.336 16.608 0 22.912s16.608 6.336 22.912 0l252.096-252.096c6.368-6.336 6.368-16.608 0.032-22.944z" />
<glyph unicode="&#xe610;" glyph-name="warning" d="M977.76 152.992l-400.608 685.952c-33.408 33.408-87.616 33.408-121.024 0l-400.64-685.952c-33.408-33.376-33.408-87.552 0-120.992h922.24c33.472 33.44 33.472 87.616 0.032 120.992zM479.744 592.704c0 26.528 21.504 48 48 48s48-21.472 48-48v-224c0-26.496-21.504-48-48-48s-48 21.504-48 48v224zM528.032 160.448c-26.496 0-48 21.44-48 48 0 26.496 21.504 48 48 48s48-21.504 48-48c0-26.56-21.504-48-48-48z" />
<glyph unicode="&#xe611;" glyph-name="bomb" horiz-adv-x="1168" d="M1063.296 706.304l105.088-14.848-93.44-49.472 67.744-61.888-98.080 12.384 60.704-126.24-121.44 91.584-100.448-121.28 46.72 150.944-147.168-79.2 102.752 111.36-7.040 27.392c-27.744-13.824-67.040-27.936-108.128-26.304-54.496 0-122.176 38.016-203.040 105.984 0 0-91.552 96.832-168.512 96.832-79.168 0-71.424-119.104-71.328-120.288h89.664v-81.024c113.984-43.904 191.008-154.176 191.008-283.68 0-168-136.192-304.192-304.192-304.192s-304.16 136.256-304.16 304.256c0 129.472 79.008 239.776 192.992 283.68v81.024h80.128c-0.096 0.608-9.216 87.808 36.8 136.192 24.544 25.792 54.528 38.688 90.016 38.688 106.784 0 202.624-112.384 202.624-112.384 70.24-60.288 127.52-90.4 171.84-90.4 17.984 0 54.592 11.328 73.408 17.568l-57.824 45.504 100.448-7.392-77.056 118.784 126.112-89.088 14.016 84.16 23.328-76.736 93.44 111.36-21.024-123.744 107.424 24.736-93.376-74.272z" />
<glyph unicode="&#xe612;" glyph-name="injection" d="M773.12 665.376c12.096-12.064 12.096-31.648 0-43.744-12.096-12.064-21.92-21.888-21.92-21.888l21.92-21.888c24.16-24.16 24.16-63.328 0-87.52l-328.16-328.096c-24.192-24.192-63.36-24.192-87.52 0l-21.888 21.888-87.488-87.552 43.744-43.744c12.096-12.064 12.096-31.616 0-43.744-12.096-12.064-31.68-12.064-43.744 0l-175.040 175.072c-12.064 12.064-12.064 31.616 0 43.744 12.096 12.064 31.68 12.064 43.744 0l43.744-43.744 87.52 87.488-21.888 21.888c-24.192 24.128-24.192 63.328 0 87.488l328.192 328.128c24.192 24.192 63.328 24.192 87.488 0l21.888-21.888c0 0 9.824 9.824 21.888 21.888 12.096 12.096 31.68 12.096 43.744 0l10.944-10.944 175.040 175.040v-43.744l-153.152-153.152 10.944-10.976zM619.968 687.264c-12.064 12.096-31.648 12.096-43.744 0l-65.632-65.632 43.744-43.744-21.888-21.888-43.744 43.744-65.632-65.632 43.744-43.776-21.888-21.888-43.776 43.776-21.888-21.888 87.52-87.488-21.888-21.888-87.52 87.488-65.568-65.568 87.488-87.488-21.888-21.888-87.488 87.488-21.888-21.888c-12.096-12.064-12.096-31.68 0-43.744l131.264-131.264c12.096-12.128 31.68-12.128 43.776 0l328.128 328.128c12.128 12.064 12.128 31.648 0 43.744l-131.232 131.296zM532.48 643.52l21.888 21.888 87.488-87.488-21.888-21.888-87.488 87.488zM532.48 468.512l-87.488 87.52 21.888 21.888 87.488-87.52-21.888-21.888zM313.696 424.736l21.888 21.888 43.744-43.744-21.888-21.888-43.744 43.744zM958.144 659.648c0-23.2-18.816-41.984-41.984-41.984-23.232 0-42.016 18.816-42.016 41.984 0 23.232 42.016 86.656 42.016 86.656s41.984-63.456 41.984-86.656z" />
<glyph unicode="&#xe613;" glyph-name="chat2" d="M512 791.232c-222.048 0-402.080-133.984-402.080-299.264 0-99.328 65.024-187.328 165.12-241.76-0.288-0.864-79.744-145.44-79.744-145.44s242.656 92.544 243.328 92.928c23.808-3.296 48.352-4.96 73.408-4.96 222.048 0 402.080 133.984 402.080 299.232-0.032 165.28-180.064 299.264-402.112 299.264zM318.976 460c-17.664 0-32 14.336-32 32 0 17.696 14.336 32 32 32s32-14.304 32-32c0-17.664-14.304-32-32-32zM446.304 458.656c-17.664 0-32 14.336-32 32 0 17.696 14.336 32 32 32 17.696 0 32-14.304 32-32 0-17.664-14.304-32-32-32zM575.616 458.656c-17.664 0-32 14.336-32 32 0 17.696 14.336 32 32 32 17.696 0 32-14.304 32-32 0-17.664-14.304-32-32-32zM703.616 458.656c-17.664 0-32 14.336-32 32 0 17.696 14.336 32 32 32 17.696 0 32-14.304 32-32 0-17.664-14.304-32-32-32z" />
<glyph unicode="&#xe614;" glyph-name="truck2" d="M863.008 544c-17.696 0-32 0-32 0h-63.328l-0.416-40.192c19.136-10.912 31.744-31.648 31.744-55.808l1.344-222.016h-607.36v222.016c0 23.616 12.928 44.032 32 55.136v40.864h-64c0 0-14.336 0-32 0-17.696 0-32 14.336-32 32v32c0 17.696 14.304 32 32 32 17.664 0 32 0 32 0v-64h64v96c0 35.328 28.672 64 64 64h416c35.328 0 64-28.672 64-64l-0.992-96h63.008v64c0 0 14.304 0 32 0 17.664 0 32-14.304 32-32v-32c0-17.664-14.336-32-32-32zM384.992 256h224v32h-224v-32zM384.992 320h224v32h-224v-32zM384.992 384h224v32h-224v-32zM256.992 288c0-17.664 14.304-32 32-32h32c17.664 0 32 14.336 32 32 0 17.696-14.336 32-32 32h-32c-17.664 0-32-14.304-32-32zM704.992 640c0 17.696-14.304 32-32 32h-352c-17.696 0-32-14.304-32-32v-160h416v160zM704.992 320h-32c-17.696 0-32-14.304-32-32 0-17.664 14.304-32 32-32h32c17.664 0 32 14.336 32 32 0 17.696-14.336 32-32 32zM736.992 768h-480c-35.328 0-64-28.672-64-64v160c0 17.696 14.304 32 32 32h544c17.664 0 32-14.304 32-32v-160c0 35.328-28.64 64-64 64zM800.992 161.984c0-17.664-14.336-32-32-32h-544c-17.696 0-32 14.336-32 32 0 17.696 0 32 0 32h608c0 0 0-14.304 0-32zM352.992 32c0-17.664-14.336-32-32-32h-32c-17.696 0-32 14.336-32 32v64h96v-64zM736.992 32c0-17.664-14.336-32-32-32h-32c-17.696 0-32 14.336-32 32v64h96v-64z" />
<glyph unicode="&#xe615;" glyph-name="bus" horiz-adv-x="1056" d="M704 31.616c0-17.696 14.304-32 32-32h32c17.664 0 32 14.304 32 32v65.984h-96v-65.984zM256 31.616c0-17.696 14.304-32 32-32h32c17.696 0 32 14.304 32 32v65.984h-96v-65.984zM159.52 136.672c0-21.44 17.408-38.88 38.88-38.88h659.072c21.472 0 38.88 17.44 38.88 38.88 0 21.504 0 22.88 0 22.88h-736.832c0 0 0-1.376 0-22.88zM1024 639.616v64h-127.68l0.032 34.816c0 77.792-79.648 157.984-383.168 157.984-266.816 0-353.664-80.192-353.664-157.984v-34.816h-127.52v-64h-32v-128h32v-64h127.52v-255.168h736l0.704 479.168h95.776v-32h-32v-128h32v-32h-96v-32h128v64h32v128h-32zM159.52 479.616h-95.52v32h32v128h-32v32h95.52v-192zM400 801.6h256c8.832 0 16-7.168 16-16s-7.168-16-16-16h-256c-8.832 0-16 7.168-16 16s7.168 16 16 16zM225.312 664.672c0 21.472 17.408 38.88 38.88 38.88h208.448c21.472 0 38.88-17.408 38.88-38.88v-114.656c0-21.504-17.408-38.912-38.88-38.912h-208.448c-21.472 0-38.88 17.408-38.88 38.912v114.656zM287.616 264.384c-32.224 0-58.304 26.112-58.304 58.304 0 32.256 26.080 58.304 58.304 58.304s58.336-26.048 58.336-58.304c0.032-32.192-26.112-58.304-58.336-58.304zM384 415.616h288v-32h-288v32zM673.024 257.824h-288.192v30.88h288.192v-30.88zM673.024 321.568h-288.192v30.88h288.192v-30.88zM768.256 262.368c-32.224 0-58.304 26.112-58.304 58.304s26.080 58.304 58.304 58.304 58.336-26.112 58.336-58.304-26.112-58.304-58.336-58.304zM832.16 550.016c0-21.504-17.408-38.912-38.912-38.912h-209.984c-21.504 0-38.912 17.408-38.912 38.912v114.656c0 21.472 17.408 38.88 38.912 38.88h209.984c21.504 0 38.912-17.408 38.912-38.88v-114.656z" />
<glyph unicode="&#xe616;" glyph-name="local_taxi" d="M214 490h596l-64 192h-468zM746 278c36 0 64 28 64 64s-28 64-64 64-64-28-64-64 28-64 64-64zM278 278c36 0 64 28 64 64s-28 64-64 64-64-28-64-64 28-64 64-64zM808 704l88-256v-342c0-24-18-42-42-42h-44c-24 0-42 18-42 42v44h-512v-44c0-24-18-42-42-42h-44c-24 0-42 18-42 42v342l88 256c8 26 34 42 62 42h106v86h256v-86h106c28 0 54-16 62-42z" />
<glyph unicode="&#xe617;" glyph-name="paperplane" d="M1009.376 954.88c-5.312 3.424-11.36 5.12-17.376 5.12-6.176 0-12.384-1.76-17.76-5.376l-960-640c-9.888-6.56-15.328-18.112-14.048-29.952 1.216-11.808 8.896-22.016 19.936-26.368l250.368-100.192 117.728-206.016c5.632-9.888 16.096-16 27.424-16.128 0.128 0 0.224 0 0.352 0 11.232 0 21.664 5.952 27.424 15.552l66.464 110.816 310.24-124.064c3.808-1.536 7.808-2.272 11.872-2.272 5.44 0 10.816 1.376 15.68 4.128 8.448 4.736 14.24 13.056 15.872 22.624l160 960c2.080 12.576-3.488 25.184-14.176 32.128zM100.352 295.136l741.6 494.432-539.2-577.184c-2.848 1.696-5.376 3.936-8.512 5.184l-193.888 77.568zM326.048 189.888c-0.064 0.128-0.16 0.192-0.224 0.32l606.176 648.8-516.768-805.184-89.184 156.064zM806.944 12.512l-273.312 109.312c-6.496 2.56-13.248 3.424-19.936 3.808l420.864 652.416-127.616-765.536z" />
<glyph unicode="&#xe618;" glyph-name="send" d="M85.76 64l895.573 384-895.573 384-0.427-298.667 640-85.333-640-85.333z" />
<glyph unicode="&#xe619;" glyph-name="ruler" d="M729.549 937.574l-707.123-707.226c-29.901-29.901-29.901-78.746 0.102-108.749l163.072-163.174c29.901-29.901 78.899-30.003 108.749-0.102l707.226 707.226c29.901 29.952 29.901 78.899 0 108.8l-163.123 163.226c-30.054 30.003-78.95 29.85-108.902 0zM201.165 176.026l-38.861-38.861-97.075 97.126 38.861 38.861 97.075-97.126zM356.608 176.026l-38.861-38.861-174.848 174.848 38.861 38.912 174.848-174.899zM356.608 331.469l-38.861-38.861-97.178 97.075 38.912 38.912 97.126-97.126zM434.33 409.19l-38.861-38.861-97.075 97.075 38.861 38.912 97.075-97.126zM589.722 409.19l-38.861-38.861-174.797 174.797 38.861 38.861 174.797-174.797zM589.722 564.582l-38.861-38.861-97.075 97.075 38.861 38.861 97.075-97.075zM667.443 642.253l-38.861-38.861-97.126 97.126 38.861 38.861 97.126-97.126zM822.886 642.253l-38.912-38.861-174.797 174.848 38.861 38.912 174.848-174.899zM822.835 797.645l-38.861-38.861-97.075 97.178 38.861 38.81 97.075-97.126z" />
<glyph unicode="&#xe61a;" glyph-name="enter" d="M384 448h-320v128h320v128l192-192-192-192zM1024 960v-832l-384-192v192h-384v256h64v-192h320v576l256 128h-576v-256h-64v320z" />
<glyph unicode="&#xe61b;" glyph-name="exit" d="M768 320v128h-320v128h320v128l192-192zM704 384v-256h-320v-192l-384 192v832h704v-320h-64v256h-512l256-128v-576h256v192z" />
<glyph unicode="&#xe61c;" glyph-name="pencil" d="M864 960c88.364 0 160-71.634 160-160 0-36.020-11.91-69.258-32-96l-64-64-224 224 64 64c26.742 20.090 59.978 32 96 32zM64 224l-64-288 288 64 592 592-224 224-592-592zM715.578 596.422l-448-448-55.156 55.156 448 448 55.156-55.156z" />
<glyph unicode="&#xe61d;" glyph-name="image" d="M0 832v-832h1024v832h-1024zM960 64h-896v704h896v-704zM704 608c0 53.019 42.981 96 96 96s96-42.981 96-96c0-53.019-42.981-96-96-96s-96 42.981-96 96zM896 128h-768l192 512 256-320 128 96z" />
<glyph unicode="&#xe61e;" glyph-name="images" d="M128 704v-640h896v640h-896zM960 170.666l-128 213.334-145.066-120.888-110.934 184.888-384-320v512h768v-469.334zM256 480c0 53.019 42.981 96 96 96s96-42.981 96-96c0-53.019-42.981-96-96-96s-96 42.981-96 96zM896 832h-896v-640h64v576h832z" />
<glyph unicode="&#xe61f;" glyph-name="book" d="M896 832v-832h-672c-53.022 0-96 42.98-96 96 0 53.018 42.978 96 96 96h608v768h-640c-70.398 0-128-57.6-128-128v-768c0-70.4 57.602-128 128-128h768v896h-64zM256 128h576v-64h-576z" />
<glyph unicode="&#xe620;" glyph-name="books" d="M576.234 670.73l242.712 81.432 203.584-606.784-242.712-81.432zM0 64h256v704h-256v-704zM64 640h128v-64h-128v64zM320 64h256v704h-256v-704zM384 640h128v-64h-128v64z" />
<glyph unicode="&#xe621;" glyph-name="file" d="M864 960h-768c-52.8 0-96-43.2-96-96v-832c0-52.8 43.2-96 96-96h768c52.8 0 96 43.2 96 96v832c0 52.8-43.2 96-96 96zM832 64h-704v768h704v-768zM256 512h448v-64h-448zM256 384h448v-64h-448zM256 256h448v-64h-448zM256 640h448v-64h-448z" />
<glyph unicode="&#xe622;" glyph-name="copy" d="M832 704h-192v64l-192 192h-448v-768h384v-256h640v576l-192 192zM832 613.49l101.49-101.49h-101.49v101.49zM448 869.49l101.49-101.49h-101.49v101.49zM64 896h320v-192h192v-448h-512v640zM960 0h-512v192h192v448h128v-192h192v-448z" />
<glyph unicode="&#xe623;" glyph-name="stack" d="M1024 640l-512 256-512-256 512-256 512 256zM512 811.030l342.058-171.030-342.058-171.030-342.058 171.030 342.058 171.030zM921.444 499.278l102.556-51.278-512-256-512 256 102.556 51.278 409.444-204.722zM921.444 307.278l102.556-51.278-512-256-512 256 102.556 51.278 409.444-204.722z" />
<glyph unicode="&#xe624;" glyph-name="folder" d="M0 640h1024l-64-640h-896l-64 640zM928 768l32-64h-896l64 128h352l32-64h416z" />
<glyph unicode="&#xe625;" glyph-name="folder-open" d="M832 0l192 512h-832l-192-512zM128 576l-128-576v832h288l128-128h416v-128z" />
<glyph unicode="&#xe626;" glyph-name="notebook" d="M898.36 896h-770.36v-128h-93.64c-17.6 0-34.36-12.528-34.36-30.128v-64c0-17.6 16.76-33.872 34.36-33.872h93.64v-64h-93.64c-17.6 0-34.36-12.528-34.36-30.128v-64c0-17.6 16.76-33.872 34.36-33.872h93.64v-64h-93.64c-17.6 0-34.36-12.528-34.36-30.128v-64c0-17.598 16.76-33.872 34.36-33.872h93.64v-64h-93.64c-17.6 0-34.36-12.528-34.36-30.128v-64c0-17.6 16.76-33.872 34.36-33.872h93.64v-128h770.36c35.348 0 61.64 30.526 61.64 65.872v832c0 35.346-26.292 62.128-61.64 62.128zM320 0h-128v64h34.36c17.6 0 29.64 16.272 29.64 33.872v64c0 17.602-12.042 30.128-29.64 30.128h-34.36v64h34.36c17.6 0 29.64 16.272 29.64 33.872v64c0 17.602-12.042 30.128-29.64 30.128h-34.36v64h34.36c17.6 0 29.64 16.272 29.64 33.872v64c0 17.602-12.042 30.128-29.64 30.128h-34.36v64h34.36c17.6 0 29.64 16.272 29.64 33.872v64c0 17.602-12.040 30.128-29.64 30.128h-34.36v64h128v-832z" />
<glyph unicode="&#xe627;" glyph-name="disk" d="M896 960h-896v-1024h1024v896l-128 128zM512 832h128v-256h-128v256zM896 64h-768v768h64v-320h576v320h74.978l53.022-53.018v-714.982z" />
<glyph unicode="&#xe628;" glyph-name="user" d="M256 640c0 141.385 114.615 256 256 256s256-114.615 256-256c0-141.385-114.615-256-256-256s-256 114.615-256 256zM768 320h-512c-141.384 0-256-114.618-256-256v-64h1024v64c0 141.382-114.616 256-256 256z" />
<glyph unicode="&#xe629;" glyph-name="search" d="M992.262 88.604l-242.552 206.294c-25.074 22.566-51.89 32.926-73.552 31.926 57.256 67.068 91.842 154.078 91.842 249.176 0 212.078-171.922 384-384 384-212.076 0-384-171.922-384-384s171.922-384 384-384c95.098 0 182.108 34.586 249.176 91.844-1-21.662 9.36-48.478 31.926-73.552l206.294-242.552c35.322-39.246 93.022-42.554 128.22-7.356s31.892 92.898-7.354 128.22zM384 320c-141.384 0-256 114.616-256 256s114.616 256 256 256 256-114.616 256-256-114.614-256-256-256z" />
<glyph unicode="&#xe62a;" glyph-name="key" d="M704 960c-176.73 0-320-143.268-320-320 0-20.026 1.858-39.616 5.376-58.624l-389.376-389.376v-192c0-35.346 28.654-64 64-64h64v64h128v128h128v128h128l83.042 83.042c34.010-12.316 70.696-19.042 108.958-19.042 176.73 0 320 143.268 320 320s-143.27 320-320 320zM799.874 639.874c-53.020 0-96 42.98-96 96s42.98 96 96 96 96-42.98 96-96-42.98-96-96-96z" />
<glyph unicode="&#xe62b;" glyph-name="minus" d="M0 544v-192c0-17.672 14.328-32 32-32h960c17.672 0 32 14.328 32 32v192c0 17.672-14.328 32-32 32h-960c-17.672 0-32-14.328-32-32z" />
<glyph unicode="&#xe62c;" glyph-name="plus" d="M992 576h-352v352c0 17.672-14.328 32-32 32h-192c-17.672 0-32-14.328-32-32v-352h-352c-17.672 0-32-14.328-32-32v-192c0-17.672 14.328-32 32-32h352v-352c0-17.672 14.328-32 32-32h192c17.672 0 32 14.328 32 32v352h352c17.672 0 32 14.328 32 32v192c0 17.672-14.328 32-32 32z" />
<glyph unicode="&#xe62d;" glyph-name="arrow-up" d="M512.002 960l-512.002-512h320v-511.998l384-0.002v512h320z" />
<glyph unicode="&#xe62e;" glyph-name="arrow-right" d="M1024 448l-512 512v-320h-511.998l-0.002-384h512v-320z" />
<glyph unicode="&#xe62f;" glyph-name="arrow-down" d="M512-64l512 512h-320v511.998l-384 0.002v-512h-320z" />
<glyph unicode="&#xe630;" glyph-name="arrow-left" d="M0 448l512-512v320h511.998l0.002 384h-512v320z" />
<glyph unicode="&#xe631;" glyph-name="bold" d="M707.88 475.348c37.498 44.542 60.12 102.008 60.12 164.652 0 141.16-114.842 256-256 256h-320v-896h384c141.158 0 256 114.842 256 256 0 92.956-49.798 174.496-124.12 219.348zM384 768h101.5c55.968 0 101.5-57.42 101.5-128s-45.532-128-101.5-128h-101.5v256zM543 128h-159v256h159c58.45 0 106-57.42 106-128s-47.55-128-106-128z" />
<glyph unicode="&#xe632;" glyph-name="underline" d="M704 896h128v-416c0-159.058-143.268-288-320-288-176.73 0-320 128.942-320 288v416h128v-416c0-40.166 18.238-78.704 51.354-108.506 36.896-33.204 86.846-51.494 140.646-51.494s103.75 18.29 140.646 51.494c33.116 29.802 51.354 68.34 51.354 108.506v416zM192 128h640v-128h-640z" />
<glyph unicode="&#xe633;" glyph-name="italic" d="M896 896v-64h-128l-320-768h128v-64h-448v64h128l320 768h-128v64z" />
<glyph unicode="&#xe634;" glyph-name="paragraph-left" d="M0 896h1024v-128h-1024zM0 704h640v-128h-640zM0 320h640v-128h-640zM0 512h1024v-128h-1024zM0 128h1024v-128h-1024z" />
<glyph unicode="&#xe635;" glyph-name="paragraph-center" d="M0 896h1024v-128h-1024zM192 704h640v-128h-640zM192 320h640v-128h-640zM0 512h1024v-128h-1024zM0 128h1024v-128h-1024z" />
<glyph unicode="&#xe636;" glyph-name="paragraph-right" d="M0 896h1024v-128h-1024zM384 704h640v-128h-640zM384 320h640v-128h-640zM0 512h1024v-128h-1024zM0 128h1024v-128h-1024z" />
<glyph unicode="&#xe637;" glyph-name="list" d="M384 896h640v-128h-640v128zM384 512h640v-128h-640v128zM384 128h640v-128h-640v128zM0 832c0 70.692 57.308 128 128 128s128-57.308 128-128c0-70.692-57.308-128-128-128s-128 57.308-128 128zM0 448c0 70.692 57.308 128 128 128s128-57.308 128-128c0-70.692-57.308-128-128-128s-128 57.308-128 128zM0 64c0 70.692 57.308 128 128 128s128-57.308 128-128c0-70.692-57.308-128-128-128s-128 57.308-128 128z" />
<glyph unicode="&#xe638;" glyph-name="numbered-list" d="M384 128h640v-128h-640zM384 512h640v-128h-640zM384 896h640v-128h-640zM192 960v-256h-64v192h-64v64zM128 434v-50h128v-64h-192v146l128 60v50h-128v64h192v-146zM256 256v-320h-192v64h128v64h-128v64h128v64h-128v64z" />
<glyph unicode="&#xe639;" glyph-name="menu" d="M0 576h704v-128h-704v128zM0 768h704v-128h-704v128zM0 384h704v-128h-704v128zM0 192h704v-128h-704v128zM768 384l128-192 128 192h-256zM1024 448l-128 192-128-192h256z" />
<glyph unicode="&#xe63a;" glyph-name="menu2" d="M64 768h896v-192h-896zM64 512h896v-192h-896zM64 256h896v-192h-896z" />
<glyph unicode="&#xe63b;" glyph-name="print" d="M256 896h512v-128h-512zM960 704h-896c-35.2 0-64-28.8-64-64v-320c0-35.2 28.796-64 64-64h192v-256h512v256h192c35.2 0 64 28.8 64 64v320c0 35.2-28.8 64-64 64zM704 64h-384v320h384v-320zM974.4 608c0-25.626-20.774-46.4-46.398-46.4-25.626 0-46.402 20.774-46.402 46.4s20.776 46.4 46.402 46.4c25.626 0 46.398-20.774 46.398-46.4z" />
<glyph unicode="&#xe63c;" glyph-name="remove" d="M800 832h-576c-53.020 0-96-42.98-96-96v-32h768v32c0 53.020-42.98 96-96 96zM632.32 896l14.116-101h-268.872l14.114 101h240.642M640 960h-256c-26.4 0-50.99-21.392-54.642-47.538l-18.714-133.924c-3.654-26.146 14.956-47.538 41.356-47.538h320c26.4 0 45.010 21.392 41.358 47.538l-18.714 133.924c-3.654 26.146-28.244 47.538-54.644 47.538v0zM816 640h-608c-35.2 0-61.392-28.682-58.206-63.738l52.412-576.526c3.186-35.054 34.594-63.736 69.794-63.736h480c35.2 0 66.608 28.682 69.794 63.736l52.41 576.526c3.188 35.056-23.004 63.738-58.204 63.738zM384 64h-96l-32 448h128v-448zM576 64h-128v448h128v-448zM736 64h-96v448h128l-32-448z" />
<glyph unicode="&#xe63d;" glyph-name="link" d="M953.396 885.358l-4.028 4.042c-94.148 94.134-248.194 94.134-342.326 0l-218.106-218.136c-94.134-94.132-94.134-248.176 0-342.31l4.026-4.026c7.832-7.848 16.146-14.924 24.736-21.458l79.848 79.85c-9.302 5.494-18.126 12.072-26.116 20.060l-4.042 4.042c-51.114 51.098-51.114 134.272 0 185.39l218.128 218.112c51.116 51.118 134.274 51.118 185.386 0l4.042-4.024c51.1-51.116 51.1-134.292 0-185.39l-98.686-98.686c17.132-42.308 25.248-87.4 24.538-132.386l152.604 152.604c94.134 94.136 94.134 248.178-0.004 342.316zM631.042 571.066c-7.832 7.832-16.146 14.922-24.736 21.44l-79.848-79.832c9.304-5.496 18.126-12.074 26.116-20.062l4.042-4.040c51.116-51.116 51.116-134.272 0-185.388l-218.13-218.134c-51.118-51.102-134.276-51.102-185.388 0l-4.042 4.042c-51.098 51.12-51.098 134.276 0 185.388l98.688 98.686c-17.134 42.306-25.246 87.402-24.538 132.386l-152.602-152.598c-94.136-94.132-94.136-248.178 0-342.324l4.026-4.032c94.152-94.128 248.192-94.128 342.328 0l218.11 218.118c94.134 94.132 94.134 248.194 0 342.326l-4.026 4.024z" />
<glyph unicode="&#xe63e;" glyph-name="scissors" d="M890.774 250.846c-45.654 45.556-103.728 69.072-157.946 69.072h-29.112l-63.904 64.008 255.62 256.038c63.904 64.010 63.904 192.028 0 256.038l-383.43-384.056-383.432 384.054c-63.904-64.008-63.904-192.028 0-256.038l255.622-256.034-63.906-64.008h-29.114c-54.22 0-112.292-23.518-157.948-69.076-81.622-81.442-92.65-202.484-24.63-270.35 29.97-29.902 70.288-44.494 112.996-44.494 54.216 0 112.29 23.514 157.946 69.072 53.584 53.464 76.742 124 67.084 185.348l65.384 65.488 65.376-65.488c-9.656-61.348 13.506-131.882 67.084-185.348 45.662-45.558 103.732-69.072 157.948-69.072 42.708 0 83.024 14.592 112.994 44.496 68.020 67.866 56.988 188.908-24.632 270.35zM353.024 114.462c-7.698-17.882-19.010-34.346-33.626-48.926-14.636-14.604-31.172-25.918-49.148-33.624-16.132-6.916-32.96-10.568-48.662-10.568-15.146 0-36.612 3.402-52.862 19.612-16.136 16.104-19.52 37.318-19.52 52.288 0 15.542 3.642 32.21 10.526 48.212 7.7 17.884 19.014 34.346 33.626 48.926 14.634 14.606 31.172 25.914 49.15 33.624 16.134 6.914 32.96 10.568 48.664 10.568 15.146 0 36.612-3.4 52.858-19.614 16.134-16.098 19.522-37.316 19.522-52.284 0.002-15.542-3.638-32.216-10.528-48.214zM512.004 293.404c-49.914 0-90.376 40.532-90.376 90.526 0 49.992 40.462 90.52 90.376 90.52s90.372-40.528 90.372-90.52c0-49.998-40.46-90.526-90.372-90.526zM855.272 40.958c-16.248-16.208-37.712-19.612-52.86-19.612-15.704 0-32.53 3.652-48.666 10.568-17.972 7.706-34.508 19.020-49.142 33.624-14.614 14.58-25.926 31.042-33.626 48.926-6.886 15.998-10.526 32.672-10.526 48.212 0 14.966 3.384 36.188 19.52 52.286 16.246 16.208 37.712 19.614 52.86 19.614 15.7 0 32.53-3.654 48.66-10.568 17.978-7.708 34.516-19.018 49.15-33.624 14.61-14.58 25.924-31.042 33.626-48.926 6.884-15.998 10.526-32.67 10.526-48.212-0.002-14.97-3.39-36.186-19.522-52.288z" />
<glyph unicode="&#xe63f;" glyph-name="close" d="M1014.662 137.34c-0.004 0.004-0.008 0.008-0.012 0.010l-310.644 310.65 310.644 310.65c0.004 0.004 0.008 0.006 0.012 0.010 3.344 3.346 5.762 7.254 7.312 11.416 4.246 11.376 1.824 24.682-7.324 33.83l-146.746 146.746c-9.148 9.146-22.45 11.566-33.828 7.32-4.16-1.55-8.070-3.968-11.418-7.31 0-0.004-0.004-0.006-0.008-0.010l-310.648-310.652-310.648 310.65c-0.004 0.004-0.006 0.006-0.010 0.010-3.346 3.342-7.254 5.76-11.414 7.31-11.38 4.248-24.682 1.826-33.83-7.32l-146.748-146.748c-9.148-9.148-11.568-22.452-7.322-33.828 1.552-4.16 3.97-8.072 7.312-11.416 0.004-0.002 0.006-0.006 0.010-0.010l310.65-310.648-310.65-310.652c-0.002-0.004-0.006-0.006-0.008-0.010-3.342-3.346-5.76-7.254-7.314-11.414-4.248-11.376-1.826-24.682 7.322-33.83l146.748-146.746c9.15-9.148 22.452-11.568 33.83-7.322 4.16 1.552 8.070 3.97 11.416 7.312 0.002 0.004 0.006 0.006 0.010 0.010l310.648 310.65 310.648-310.65c0.004-0.002 0.008-0.006 0.012-0.008 3.348-3.344 7.254-5.762 11.414-7.314 11.378-4.246 24.684-1.826 33.828 7.322l146.746 146.748c9.148 9.148 11.57 22.454 7.324 33.83-1.552 4.16-3.97 8.068-7.314 11.414z" />
<glyph unicode="&#xe640;" glyph-name="pencil2" d="M384 320l128 64 448 448-64 64-448-448-64-128zM289.3 92.902c-31.632 66.728-65.666 100.762-132.396 132.394l99.096 272.792 128 77.912 384 384h-192l-384-384-192-640 640 192 384 384v192l-384-384-77.912-128" />
<glyph unicode="&#xe641;" glyph-name="undo" d="M512 896c-141.384 0-269.376-57.32-362.032-149.978l-149.968 149.978v-384h384l-143.532 143.522c69.496 69.492 165.492 112.478 271.532 112.478 212.068 0 384-171.924 384-384 0-114.696-50.292-217.636-130.018-288l84.666-96c106.302 93.816 173.352 231.076 173.352 384 0 282.77-229.23 512-512 512z" />
<glyph unicode="&#xe642;" glyph-name="redo" d="M0 384c0-152.924 67.048-290.184 173.35-384l84.666 96c-79.726 70.364-130.016 173.304-130.016 288 0 212.076 171.93 384 384 384 106.042 0 202.038-42.986 271.53-112.478l-143.53-143.522h384v384l-149.97-149.978c-92.654 92.658-220.644 149.978-362.030 149.978-282.77 0-512-229.23-512-512z" />
<glyph unicode="&#xe643;" glyph-name="file-xml" d="M448 384l-64 64-192-192 192-192 64 64-128 128zM576 128l64-64 192 192-192 192-64-64 128-128zM903.432 760.57l-142.864 142.862c-31.112 31.112-92.568 56.568-136.568 56.568h-480c-44 0-80-36-80-80v-864c0-44 36-80 80-80h736c44 0 80 36 80 80v608c0 44-25.456 105.458-56.568 136.57zM858.178 715.314c3.13-3.13 6.25-6.974 9.28-11.314h-163.458v163.456c4.34-3.030 8.184-6.15 11.314-9.28l142.864-142.862zM896 16c0-8.672-7.328-16-16-16h-736c-8.672 0-16 7.328-16 16v864c0 8.672 7.328 16 16 16h480c4.832 0 10.254-0.61 16-1.704v-254.296h254.296c1.094-5.746 1.704-11.166 1.704-16v-608z" />
<glyph unicode="&#xe644;" glyph-name="file-css" d="M384 348.554v114.226c0 15.128 6.696 29.436 18.854 40.286 12.16 10.848 28.192 16.826 45.146 16.826v57.11c-70.4 0-128-51.4-128-114.222v-85.666c0-15.772-14.328-28.558-32-28.558h-32v-57.11h32c17.674 0 32-12.79 32-28.558v-85.676c0-62.814 57.6-114.214 128-114.214v57.112c-16.954 0-32.988 5.976-45.146 16.826-12.158 10.852-18.854 25.154-18.854 40.278v114.234c0 15.77-14.328 28.554-32 28.554 17.674-0.002 32 12.788 32 28.552zM640 291.446v-114.234c0-15.124-6.696-29.426-18.854-40.278-12.158-10.85-28.19-16.826-45.146-16.826v-57.112c70.402 0 128 51.4 128 114.214v85.676c0 15.772 14.328 28.558 32 28.558h32v57.11h-32c-17.672 0-32 12.79-32 28.558v85.668c0 62.824-57.598 114.222-128 114.222v-57.11c16.958 0 32.988-5.978 45.146-16.83 12.16-10.848 18.854-25.156 18.854-40.284v-114.228c0-15.766 14.328-28.552 32-28.552-17.672 0.002-32-12.788-32-28.552zM903.432 760.57l-142.864 142.862c-31.112 31.112-92.568 56.568-136.568 56.568h-480c-44 0-80-36-80-80v-864c0-44 36-80 80-80h736c44 0 80 36 80 80v608c0 44-25.456 105.458-56.568 136.57zM858.178 715.314c3.13-3.13 6.25-6.974 9.28-11.314h-163.458v163.456c4.34-3.030 8.184-6.15 11.314-9.28l142.864-142.862zM896 16c0-8.672-7.328-16-16-16h-736c-8.672 0-16 7.328-16 16v864c0 8.672 7.328 16 16 16h480c4.832 0 10.254-0.61 16-1.704v-254.296h254.296c1.094-5.746 1.704-11.166 1.704-16v-608z" />
<glyph unicode="&#xe645;" glyph-name="html5" d="M60.538 960l82.144-921.63 368.756-102.37 369.724 102.524 82.3 921.476h-902.924zM784.63 658.572h-432.54l10.302-115.75h411.968l-31.042-347.010-231.844-64.254-231.572 64.254-15.83 177.512h113.494l8.048-90.232 125.862-33.916 0.278 0.078 125.934 33.992 13.070 146.55h-391.74l-30.494 341.8h566.214l-10.108-113.024z" />
<glyph unicode="&#xe646;" glyph-name="css3" d="M152.388 911.478l-34.36-171.926h699.748l-21.884-111.054h-700.188l-33.892-171.898h699.684l-39.018-196.064-282.012-93.422-244.4 93.422 16.728 85.042h-171.898l-40.896-206.352 404.226-154.704 466.006 154.704 153.768 772.252z" />
<glyph unicode="&#xe647;" glyph-name="mail" d="M853.31 960h-682.62c-93.88 0-170.69-76.784-170.69-170.658v-682.656c0-93.876 76.81-170.686 170.69-170.686h682.622c93.938 0 170.688 76.81 170.688 170.686v682.656c0 93.874-76.75 170.658-170.69 170.658zM256 704h512c9.138 0 18.004-1.962 26.144-5.662l-282.144-329.168-282.144 329.17c8.14 3.696 17.006 5.66 26.144 5.66zM192 256v384c0 1.34 0.056 2.672 0.14 4l187.664-218.94-185.598-185.6c-1.444 5.338-2.206 10.886-2.206 16.54zM768 192h-512c-5.654 0-11.202 0.762-16.54 2.206l182.118 182.118 90.422-105.496 90.424 105.494 182.116-182.118c-5.34-1.442-10.886-2.204-16.54-2.204zM832 256c0-5.654-0.762-11.2-2.206-16.54l-185.598 185.598 187.664 218.942c0.084-1.328 0.14-2.66 0.14-4v-384z" />
<glyph unicode="&#xe648;" glyph-name="indent-increase" d="M0 896h1024v-128h-1024zM384 704h640v-128h-640zM384 512h640v-128h-640zM384 320h640v-128h-640zM0 128h1024v-128h-1024zM0 256v384l256-192z" />
<glyph unicode="&#xe649;" glyph-name="indent-decrease" d="M0 896h1024v-128h-1024zM384 704h640v-128h-640zM384 512h640v-128h-640zM384 320h640v-128h-640zM0 128h1024v-128h-1024zM256 640v-384l-256 192z" />
<glyph unicode="&#xe64a;" glyph-name="table" d="M0 768v-704h1024v704h-1024zM384 320v128h256v-128h-256zM640 256v-128h-256v128h256zM640 640v-128h-256v128h256zM320 640v-128h-256v128h256zM64 448h256v-128h-256v128zM704 448h256v-128h-256v128zM704 512v128h256v-128h-256zM64 256h256v-128h-256v128zM704 128v128h256v-128h-256z" />
<glyph unicode="&#xe64b;" glyph-name="paste" d="M704 832h-128v64c0 35.2-28.8 64-64 64h-128c-35.204 0-64-28.8-64-64v-64h-128v-128h512v128zM512 832h-128v63.886c0.034 0.038 0.072 0.078 0.114 0.114h127.768c0.042-0.036 0.082-0.076 0.118-0.114v-63.886zM832 640v160c0 17.6-14.4 32-32 32h-64v-64h32v-128h-384v-448h-256v576h32v64h-64c-17.602 0-32-14.4-32-32v-640c0-17.6 14.398-32 32-32h288v-192h448l192 192v512h-192zM832 26.51v101.49h101.49l-101.49-101.49zM960 192h-192v-192h-320v576h512v-384z" />
<glyph unicode="&#xe64c;" glyph-name="spoon-knife" d="M224 960c-106.040 0-192-100.288-192-224 0-105.924 63.022-194.666 147.706-217.998l-31.788-518.124c-2.154-35.132 24.882-63.878 60.082-63.878h32c35.2 0 62.236 28.746 60.082 63.878l-31.788 518.124c84.684 23.332 147.706 112.074 147.706 217.998 0 123.712-85.96 224-192 224zM869.334 960l-53.334-320h-40l-26.666 320h-26.668l-26.666-320h-40l-53.334 320h-26.666v-416c0-17.672 14.326-32 32-32h83.338l-31.42-512.122c-2.154-35.132 24.882-63.878 60.082-63.878h32c35.2 0 62.236 28.746 60.082 63.878l-31.42 512.122h83.338c17.674 0 32 14.328 32 32v416h-26.666z" />
<glyph unicode="&#xe64d;" glyph-name="opt" d="M928 128h-256c-12.646 0-24.106 7.448-29.242 19.004l-247.554 556.996h-299.204c-17.672 0-32 14.328-32 32s14.328 32 32 32h320c12.646 0 24.106-7.448 29.242-19.004l247.556-556.996h235.202c17.674 0 32-14.326 32-32s-14.326-32-32-32zM928 704h-320c-17.674 0-32 14.328-32 32s14.326 32 32 32h320c17.674 0 32-14.328 32-32s-14.326-32-32-32z" />
<glyph unicode="&#xe64e;" glyph-name="compass" d="M544.010-64.004c-2.296 0-4.622 0.25-6.94 0.764-14.648 3.25-25.070 16.238-25.070 31.24v480h-480c-15.002 0-27.992 10.422-31.24 25.070-3.25 14.646 4.114 29.584 17.708 35.928l960 448c12.196 5.688 26.644 3.144 36.16-6.372 9.516-9.514 12.060-23.966 6.372-36.16l-448-960c-5.342-11.44-16.772-18.47-28.99-18.47zM176.242 512h367.758c17.674 0 32-14.328 32-32v-367.758l349.79 749.546-749.548-349.788z" />
<glyph unicode="&#xe64f;" glyph-name="wrench" d="M1002.934 142.124l-460.552 394.76c21.448 40.298 33.618 86.282 33.618 135.116 0 159.058-128.942 288-288 288-29.094 0-57.172-4.332-83.646-12.354l166.39-166.39c24.89-24.89 24.89-65.62 0-90.51l-101.49-101.49c-24.89-24.89-65.62-24.89-90.51 0l-166.39 166.39c-8.022-26.474-12.354-54.552-12.354-83.646 0-159.058 128.942-288 288-288 48.834 0 94.818 12.17 135.116 33.62l394.76-460.552c22.908-26.724 62.016-28.226 86.904-3.338l101.492 101.492c24.888 24.888 23.386 63.994-3.338 86.902z" />
<glyph unicode="&#xe650;" glyph-name="cogs" d="M363.722 237.948l41.298 57.816-45.254 45.256-57.818-41.296c-10.722 5.994-22.204 10.774-34.266 14.192l-11.682 70.084h-64l-11.68-70.086c-12.062-3.418-23.544-8.198-34.266-14.192l-57.818 41.298-45.256-45.256 41.298-57.816c-5.994-10.72-10.774-22.206-14.192-34.266l-70.086-11.682v-64l70.086-11.682c3.418-12.060 8.198-23.544 14.192-34.266l-41.298-57.816 45.254-45.256 57.818 41.296c10.722-5.994 22.204-10.774 34.266-14.192l11.682-70.084h64l11.68 70.086c12.062 3.418 23.544 8.198 34.266 14.192l57.818-41.296 45.254 45.256-41.298 57.816c5.994 10.72 10.774 22.206 14.192 34.266l70.088 11.68v64l-70.086 11.682c-3.418 12.060-8.198 23.544-14.192 34.266zM224 96c-35.348 0-64 28.654-64 64s28.652 64 64 64 64-28.654 64-64-28.652-64-64-64zM1024 576v64l-67.382 12.25c-1.242 8.046-2.832 15.978-4.724 23.79l57.558 37.1-24.492 59.128-66.944-14.468c-4.214 6.91-8.726 13.62-13.492 20.13l39.006 56.342-45.256 45.254-56.342-39.006c-6.512 4.766-13.22 9.276-20.13 13.494l14.468 66.944-59.128 24.494-37.1-57.558c-7.812 1.892-15.744 3.482-23.79 4.724l-12.252 67.382h-64l-12.252-67.382c-8.046-1.242-15.976-2.832-23.79-4.724l-37.098 57.558-59.128-24.492 14.468-66.944c-6.91-4.216-13.62-8.728-20.13-13.494l-56.342 39.006-45.254-45.254 39.006-56.342c-4.766-6.51-9.278-13.22-13.494-20.13l-66.944 14.468-24.492-59.128 57.558-37.1c-1.892-7.812-3.482-15.742-4.724-23.79l-67.384-12.252v-64l67.382-12.25c1.242-8.046 2.832-15.978 4.724-23.79l-57.558-37.1 24.492-59.128 66.944 14.468c4.216-6.91 8.728-13.618 13.494-20.13l-39.006-56.342 45.254-45.256 56.342 39.006c6.51-4.766 13.22-9.276 20.13-13.492l-14.468-66.944 59.128-24.492 37.102 57.558c7.81-1.892 15.742-3.482 23.788-4.724l12.252-67.384h64l12.252 67.382c8.044 1.242 15.976 2.832 23.79 4.724l37.1-57.558 59.128 24.492-14.468 66.944c6.91 4.216 13.62 8.726 20.13 13.492l56.342-39.006 45.256 45.256-39.006 56.342c4.766 6.512 9.276 13.22 13.492 20.13l66.944-14.468 24.492 59.13-57.558 37.1c1.892 7.812 3.482 15.742 4.724 23.79l67.382 12.25zM672 468.8c-76.878 0-139.2 62.322-139.2 139.2s62.32 139.2 139.2 139.2 139.2-62.322 139.2-139.2c0-76.878-62.32-139.2-139.2-139.2z" />
<glyph unicode="&#xe651;" glyph-name="truck" d="M1024 384l-128 256h-192v128c0 35.2-28.8 64-64 64h-576c-35.2 0-64-28.8-64-64v-512l64-64h81.166c-10.898-18.832-17.166-40.678-17.166-64 0-70.692 57.308-128 128-128s128 57.308 128 128c0 23.322-6.268 45.168-17.166 64h354.334c-10.898-18.832-17.168-40.678-17.168-64 0-70.692 57.308-128 128-128s128 57.308 128 128c0 23.322-6.27 45.168-17.168 64h81.168v192zM704 384v192h132.668l96-192h-228.668z" />
<glyph unicode="&#xe652;" glyph-name="phone" d="M704 320c-64-64-64-128-128-128s-128 64-192 128-128 128-128 192 64 64 128 128-128 256-192 256-192-192-192-192c0-128 131.5-387.5 256-512s384-256 512-256c0 0 192 128 192 192s-192 256-256 192z" />
<glyph unicode="&#xe653;" glyph-name="bell" d="M1025.5 160c0 288-256 224-256 448 0 18.56-1.788 34.42-5.048 47.928-16.83 113.018-92.156 203.72-189.772 231.36 0.866 3.948 1.32 8.032 1.32 12.21 0 33.278-28.8 60.502-64 60.502s-64-27.224-64-60.5c0-4.18 0.456-8.264 1.32-12.21-109.47-30.998-190.914-141.298-193.254-273.442-0.040-1.92-0.066-3.864-0.066-5.846 0-224.002-256-160.002-256-448.002 0-76.226 170.59-139.996 398.97-156.080 21.524-40.404 64.056-67.92 113.030-67.92s91.508 27.516 113.030 67.92c228.38 16.084 398.97 79.854 398.97 156.080 0 0.228-0.026 0.456-0.028 0.682l1.528-0.682zM826.246 105.904c-54.23-14.47-118.158-24.876-186.768-30.648-5.704 65.418-60.582 116.744-127.478 116.744s-121.774-51.326-127.478-116.744c-68.608 5.772-132.538 16.178-186.768 30.648-74.63 19.914-110.31 42.19-123.368 54.096 13.058 11.906 48.738 34.182 123.368 54.096 86.772 23.152 198.372 35.904 314.246 35.904s227.474-12.752 314.246-35.904c74.63-19.914 110.31-42.19 123.368-54.096-13.058-11.906-48.738-34.182-123.368-54.096z" />
<glyph unicode="&#xe654;" glyph-name="aid-kit" d="M896 704h-192v128c0 35.2-28.8 64-64 64h-256c-35.2 0-64-28.8-64-64v-128h-192c-70.4 0-128-57.6-128-128v-512c0-70.4 57.6-128 128-128h768c70.4 0 128 57.6 128 128v512c0 70.4-57.6 128-128 128zM384 832h256v-128h-256v128zM768 256h-192v-192h-128v192h-192v128h192v192h128v-192h192v-128z" />
<glyph unicode="&#xe655;" glyph-name="fire" d="M321.008-64c-68.246 142.008-31.902 223.378 20.55 300.044 57.44 83.956 72.244 167.066 72.244 167.066s45.154-58.7 27.092-150.508c79.772 88.8 94.824 230.28 82.782 284.464 180.314-126.012 257.376-398.856 153.522-601.066 552.372 312.532 137.398 780.172 65.154 832.85 24.082-52.676 28.648-141.85-20-185.126-82.352 312.276-285.972 376.276-285.972 376.276 24.082-161.044-87.296-337.144-194.696-468.73-3.774 64.216-7.782 108.528-41.55 169.98-7.58-116.656-96.732-211.748-120.874-328.628-32.702-158.286 24.496-274.18 241.748-396.622z" />
<glyph unicode="&#xe656;" glyph-name="warning2" d="M512 867.226l429.102-855.226h-858.206l429.104 855.226zM512 960c-22.070 0-44.14-14.882-60.884-44.648l-437.074-871.112c-33.486-59.532-5-108.24 63.304-108.24h869.308c68.3 0 96.792 48.708 63.3 108.24h0.002l-437.074 871.112c-16.742 29.766-38.812 44.648-60.882 44.648v0zM576 128c0-35.346-28.654-64-64-64s-64 28.654-64 64c0 35.346 28.654 64 64 64s64-28.654 64-64zM512 256c-35.346 0-64 28.654-64 64v192c0 35.346 28.654 64 64 64s64-28.654 64-64v-192c0-35.346-28.654-64-64-64z" />
<glyph unicode="&#xe900;" glyph-name="check" d="M435.048 959.993c-5.743-0.157-11.037-3.134-14.154-7.958l-50.465-75.7h-171.872c-9.616 0-17.414-7.798-17.414-17.414v-174.136c0-9.616 7.798-17.414 17.414-17.414h174.136c9.616 0 17.414 7.798 17.414 17.414v137.39l-34.827-52.241v-67.735h-139.309v139.309h131.236l-48.978-73.465-21.405 42.813c-4.197 8.655-14.613 12.27-23.268 8.073s-12.27-14.613-8.073-23.268c0.063-0.125 0.122-0.251 0.188-0.376l34.827-69.654c4.301-8.602 14.76-12.092 23.366-7.791 2.71 1.355 5.019 3.392 6.701 5.914l139.309 208.963c5.45 7.927 3.444 18.768-4.482 24.219-3.040 2.086-6.659 3.159-10.344 3.058v0zM512.002 806.673c-9.616 0-17.414-7.798-17.414-17.414v-34.827c0-9.616 7.798-17.414 17.414-17.414h313.445c9.616 0 17.414 7.798 17.414 17.414v34.827c0 9.616-7.798 17.414-17.414 17.414h-313.445zM198.557 632.415c-9.616 0-17.414-7.798-17.414-17.414v-174.136c0-9.616 7.798-17.414 17.414-17.414h174.136c9.616 0 17.414 7.798 17.414 17.414v174.136c0 9.616-7.798 17.414-17.414 17.414h-174.136zM215.97 597.588h139.309v-139.309h-139.309v139.309zM512.002 562.89c-9.616 0-17.414-7.798-17.414-17.414v-34.827c0-9.616 7.798-17.414 17.414-17.414h313.445c9.616 0 17.414 7.798 17.414 17.414v34.827c0 9.616-7.798 17.414-17.414 17.414h-313.445zM198.557 388.754c-9.616 0-17.414-7.798-17.414-17.414v-174.136c0-9.616 7.798-17.414 17.414-17.414h174.136c9.616 0 17.414 7.798 17.414 17.414v174.136c0 9.616-7.798 17.414-17.414 17.414h-174.136zM215.97 353.926h139.309v-139.309h-139.309v139.309zM512.002 318.977c-9.616 0-17.414-7.798-17.414-17.414v-34.827c0-9.616 7.798-17.414 17.414-17.414h313.445c9.616 0 17.414 7.798 17.414 17.414v34.827c0 9.616-7.798 17.414-17.414 17.414h-313.445zM198.557 144.963c-9.616 0-17.414-7.798-17.414-17.414v-174.136c0-9.616 7.798-17.414 17.414-17.414h174.136c9.616 0 17.414 7.798 17.414 17.414v174.136c0 9.616-7.798 17.414-17.414 17.414h-174.136zM215.97 110.136h139.309v-139.309h-139.309v139.309zM512.002 75.309c-9.616 0-17.414-7.798-17.414-17.414v-34.827c0-9.616 7.798-17.414 17.414-17.414h313.445c9.616 0 17.414 7.798 17.414 17.414v34.827c0 9.616-7.798 17.414-17.414 17.414h-313.445z" />
<glyph unicode="&#xe901;" glyph-name="fraud" d="M750.687 669.096l-118.353 118.353-183.934-183.908c-13.523 7.052-28.789 11.093-45.086 11.093h-39.592c51.134 29.793 86.738 83.146 91.677 145.399h-369.084c4.886-62.201 40.49-115.632 91.65-145.399h-39.618c-54.409 0-98.491-44.108-98.491-98.491v-255.617c0-54.462 44.108-56.681 98.491-56.681l76.542 1.69 36.132-36.105 499.666 499.666zM675.993 669.096l-424.972-424.972-43.712 43.633 425.025 425.025 43.659-43.686zM772.609 647.227l-499.692-499.718 211.509-211.509 499.692 499.718-211.509 211.509zM347.611 147.509l424.998 425.025 136.815-136.815-424.998-424.998-136.815 136.789zM866.108 443.774l-81.534-81.508-90.277 90.277 81.508 81.508 90.303-90.277zM520.927 246.396l-117.244-117.217-18.673 18.647 117.217 117.217 18.7-18.647zM560.414 206.883l-117.217-117.217-18.673 18.673 117.217 117.217 18.673-18.673zM581.226 186.044l18.673-18.673-117.191-117.164-18.673 18.673 117.191 117.164zM437.386 855.434h-333.11c30.031 61.804 93.182 104.566 166.582 104.566 73.347 0 136.525-42.761 166.529-104.566zM198.355 831.584c16.217 0 29.318-13.153 29.318-29.344s-13.1-29.344-29.318-29.344c-16.164 0-29.318 13.153-29.318 29.344s13.153 29.344 29.318 29.344zM343.279 831.584c16.191 0 29.291-13.153 29.291-29.344s-13.1-29.344-29.291-29.344c-16.217 0-29.37 13.153-29.37 29.344s13.153 29.344 29.37 29.344z" />
<glyph unicode="&#xe902;" glyph-name="thief" d="M109.044 551.211l11.758-20.366c3.149 0.42 6.299 0.63 9.658 0.63 12.388 0 24.565 0 36.743 0h12.597l11.338 19.736c5.459 9.658-1.47 21.626-12.388 21.626h-57.319c-10.918-0.21-17.846-12.178-12.388-21.626zM693.358 131.505c74.955 30.864 148.86 62.148 223.815 93.221 21.836 6.719 37.792 22.046 38.212 47.031-0.21 26.455-8.818 49.13-32.963 63.827-16.377 10.288-33.593 8.818-51.020 1.47-45.981-18.686-90.912-37.583-136.893-56.269-4.409-1.89-8.608-3.779-14.067-5.039-1.89 4.409-3.779 8.608-5.459 13.017-18.686 45.981-17.217 40.522-36.323 85.453-0.63 1.47-7.349 17.427-13.857 30.864-11.548-37.373-36.533-66.767-58.158-84.403l-28.554-23.305c20.366-47.87 40.102-96.581 59.838-142.982 11.338-27.924 26.455-35.273 55.429-22.885zM179.38 396.262h-58.368c-17.427 0-32.334-10.918-35.483-26.035l-15.537-73.065c-8.398-40.732 22.675-78.944 64.247-78.944h31.494c41.572 0 72.646 38.212 64.247 78.944l-15.117 73.065c-3.149 15.117-18.056 26.035-35.483 26.035zM421.462 248.661c37.373 20.996 74.955 42.831 112.748 64.877l46.401 37.583c7.139 5.459 80.414 68.236 32.334 145.291-37.792 60.888-75.585 121.776-113.377 182.664-1.89 4.409-5.039 7.978-7.978 12.807 3.989 0.84 7.349 0.63 9.868 0.84 44.511 0 89.862-0.42 134.793 0.63 8.398 0.21 12.178-2.519 16.797-9.238 15.957-25.615 32.124-51.44 48.080-77.055s44.091-33.383 66.977-18.686c26.875 13.017 32.544 41.992 16.587 67.607-22.466 36.743-44.721 73.275-67.187 110.018-8.608 14.277-19.526 19.946-36.113 20.576-73.275-0.42-147.811-0.21-221.506-1.68-13.437-0.63-28.554-5.249-39.892-12.597-41.362-25.195-80.624-53.749-121.356-80.624-22.885-14.697-33.173-34.643-33.173-61.098-0.21-35.903-0.21-71.806-0.42-107.919-0.63-4.619 0.21-8.398 0.21-14.487-5.039-0.42-9.448 0.21-13.017 0.42-40.942-0.21-80.414 0-121.356-0.21-30.024 0.21-49.55-18.476-49.76-45.981s20.366-47.87 49.13-47.451c64.877 0.21 130.804 0 195.681 0 20.366 0.21 30.654 10.498 30.864 31.914 0.21 30.024-0.42 61.308-0.21 91.332 0.42 1.050 0.42 1.050 1.050 5.669 31.284-47.451 61.938-93.431 91.962-140.462-3.779-3.359-7.139-5.459-11.338-7.349-38.422-23.935-77.475-49.13-116.527-71.596-19.106-11.548-26.665-27.505-27.085-49.13 0.42-93.851 0.84-187.703 0.42-280.924 0.21-34.853 22.466-57.109 57.948-58.368 34.433-0.84 56.269 14.487 62.568 41.992 1.050 5.669 1.050 11.548 0.63 16.587-0.42 79.364-0.63 158.728-1.050 238.093 0 6.509-0.42 11.338 6.299 15.957zM168.462 848.932c0.84-60.258 50.6-109.388 110.858-108.548 61.308 0.42 109.808 49.13 109.178 109.598 0 62.358-49.13 109.808-111.488 110.018-59.838 0.21-108.968-49.55-108.548-111.068z" />
<glyph unicode="&#xe903;" glyph-name="evacuation-dark" d="M1024 656.223c0 54.605-44.399 99.010-99.010 99.010-54.601 0-99.010-44.402-99.010-99.010 0-13.591 2.779-26.548 7.754-38.354-1.712 0.182-3.428 0.54-5.157 0.54-0.039 0-0.109 0-0.165 0l-198.003 18.858c-1.659 0.154-3.389 0.074-5.063-0.203l-105.104-18.601c-29.081-0.954-52.408-24.91-52.408-54.201 0-29.891 24.331-54.222 54.236-54.222 1.263 0 2.523 0.14 3.768 0.407l103.469 21.152 69.371-9.687c-98.452-88.429-100.129-90.366-101.052-91.432-7.88-9.097-12.525-20.44-13.23-32.211-5.596-12.581-38.245-66.228-69.199-115.054l-131.691-45.893c-1.337-0.442-2.607-1.067-3.814-1.821-15.967-10.020-25.517-27.169-25.517-45.918 0-29.87 24.327-54.222 54.236-54.222 3.491 0 12.718 0 160.66 50.703 3.666 1.238 6.852 3.589 9.136 6.722l82.216 112.714c28.744-24.72 62.621-53.927 76.616-66.007v-115.103c0-29.909 24.327-54.219 54.219-54.219 29.909 0 54.24 24.31 54.24 54.219v134.333c0 12.136-7.536 26.702-9.859 30.867-0.884 1.617-2.007 3.091-3.354 4.364l-96.688 94.088 37.427 37.631 5.024-46.283c0.754-6.943 5.273-12.893 11.732-15.468 117.057-46.967 119.545-46.967 124.113-46.967 25.545 0 46.356 20.815 46.356 46.374 0 15.991-8.136 30.649-22.394 39.578l-71.533 41.146-5.915 62.544c2.414 5.884 5.101 11.613 5.947 12.872 12.711 13.942 14.497 29.762 14.497 44.792 0 1.382-0.312 2.68-0.389 4.024 13.448-6.852 28.442-11.079 44.532-11.079 54.608 0.007 99.007 44.427 99.007 99.017zM458.932 387.333l-57.387-57.39c-7.378-7.382-7.378-19.279 0-26.667 3.673-3.666 8.508-5.522 13.332-5.522s9.648 1.856 13.335 5.522l89.58 89.576c1.73 1.758 3.129 3.835 4.073 6.14 1.902 4.621 1.902 9.795 0 14.416-0.961 2.302-2.34 4.4-4.073 6.129l-84.864 84.868c-7.375 7.375-19.293 7.375-26.667 0-7.375-7.378-7.375-19.293 0-26.671l52.671-52.671h-107.704v381.902c0 10.413-8.455 18.858-18.858 18.858h-313.509c-10.416 0-18.861-8.445-18.861-18.858v-717.932c0-10.406 8.445-18.854 18.861-18.854h313.527c10.406 0 18.858 8.448 18.858 18.854v298.301h107.686z" />
<glyph unicode="&#xe904;" glyph-name="evacuation" d="M1024 656.22c0 54.603-44.399 99.007-99.007 99.007-54.603 0-99.007-44.404-99.007-99.007 0-13.589 2.782-26.548 7.755-38.355-1.711 0.183-3.428 0.544-5.161 0.544-0.038 0-0.113 0-0.161 0l-198.003 18.857c-1.658 0.156-3.39 0.075-5.064-0.205l-105.104-18.604c-29.083-0.958-52.407-24.906-52.407-54.199 0-29.89 24.331-54.22 54.237-54.22 1.259 0 2.524 0.135 3.767 0.404l103.468 21.15 69.375-9.687c-98.453-88.432-100.126-90.364-101.052-91.429-7.879-9.095-12.518-20.445-13.223-32.209-5.597-12.582-38.248-66.232-69.198-115.050l-131.69-45.895c-1.335-0.441-2.605-1.066-3.81-1.824-15.967-10.015-25.515-27.167-25.515-45.911 0-29.874 24.331-54.22 54.237-54.22 3.487 0 12.717 0 160.665 50.701 3.665 1.232 6.846 3.595 9.133 6.722l82.211 112.714c28.749-24.718 62.621-53.93 76.614-66.012v-115.109c0-29.906 24.331-54.215 54.22-54.215 29.911 0 54.237 24.314 54.237 54.215v134.338c0 12.136-7.529 26.704-9.854 30.864-0.883 1.62-2.007 3.094-3.353 4.365l-96.687 94.093 37.44 37.623 5.010-46.282c0.759-6.942 5.269-12.895 11.732-15.472 117.062-46.966 119.549-46.966 124.112-46.966 25.541 0 46.352 20.811 46.352 46.374 0 15.989-8.142 30.643-22.393 39.577l-71.533 41.143-5.914 62.546c2.411 5.882 5.102 11.614 5.947 12.873 12.706 13.939 14.493 29.761 14.493 44.792 0 1.383-0.318 2.68-0.387 4.025 13.449-6.851 28.437-11.076 44.533-11.076 54.586 0.016 98.985 44.437 98.985 99.023zM918.438 370.646c2.562-1.598 4.090-4.327 4.090-7.276 0-4.052-2.815-7.481-6.614-8.401-12.044 4.235-57.869 22.286-101.59 39.787l-8.067 74.256c-0.791 7.217-5.635 13.352-12.502 15.763-6.797 2.395-14.493 0.662-19.616-4.483l-78.756-79.127c-3.536-3.573-5.522-8.412-5.489-13.443 0.038-5.064 2.099-9.854 5.71-13.368l108.199-105.309c2.007-4.090 3.773-8.729 3.956-10.311v-134.338c0-9.111-7.4-16.495-16.516-16.495-9.079 0-16.5 7.4-16.5 16.495v123.746c0 5.489-2.373 10.699-6.539 14.272 0 0-60.167 51.912-98.716 85.009-3.428 2.933-7.809 4.537-12.265 4.537-0.737 0-1.469-0.043-2.169-0.129-5.231-0.608-9.967-3.369-13.077-7.626l-90.719-124.403c-64.812-22.14-135.209-45.287-142.808-46.745-9.117 0-16.527 7.421-16.527 16.5 0 5.096 2.357 9.811 6.399 12.943l135.522 47.219c3.999 1.405 7.432 4.112 9.709 7.68 78.503 123.38 78.503 131.631 78.503 137.685 0 4.881 2.25 8.492 3.315 9.8 4.698 4.569 79.541 71.878 128.735 116.008 5.452 4.908 7.588 12.523 5.452 19.541-2.153 7.018-8.18 12.163-15.429 13.158l-112.752 15.758c-2.131 0.296-4.289 0.221-6.372-0.21l-104.432-21.344c-8.374 0.791-14.956 7.863-14.956 16.436 0 9.117 7.416 16.5 16.522 16.5 1.114 0 2.201 0.102 3.277 0.285l104.049 18.427 197.223-18.712c9.084 0 16.5-7.405 16.5-16.5 0-12.007-1.62-16.059-4.601-19.309-5.581-6.087-11.215-19.083-14.934-28.927-1.028-2.696-1.399-5.581-1.141-8.471l7.238-76.743c0.57-6.119 4.074-11.565 9.391-14.59l79.299-45.545zM863.701 656.22c0 33.802 27.495 61.292 61.292 61.292s61.297-27.484 61.297-61.292c0-33.797-27.495-61.292-61.297-61.292-33.792 0-61.292 27.495-61.292 61.292zM458.934 387.33l-57.385-57.385c-7.378-7.384-7.378-19.283 0-26.666 3.676-3.67 8.508-5.527 13.336-5.527 4.822 0 9.649 1.862 13.336 5.527l89.584 89.578c1.733 1.749 3.132 3.832 4.069 6.141 1.905 4.617 1.905 9.795 0 14.418-0.958 2.303-2.341 4.402-4.069 6.135l-84.869 84.869c-7.378 7.378-19.288 7.378-26.666 0s-7.378-19.293 0-26.666l52.671-52.671h-107.709v381.879c0 10.414-8.455 18.857-18.857 18.857h-313.515c-10.414 0.005-18.857-8.438-18.857-18.857v-717.933c0-10.408 8.444-18.857 18.857-18.857h313.532c10.408 0 18.857 8.449 18.857 18.857v298.301h107.688zM313.532 107.896h-275.811v680.191h275.811v-363.038h-73.078c-10.414 0-18.857-8.449-18.857-18.857s8.444-18.863 18.857-18.863h73.078v-279.433z" />
<glyph unicode="&#xe905;" glyph-name="home" d="M1024 369.556l-512 397.426-512-397.428v162.038l512 397.426 512-397.428zM896 384v-384h-256v256h-256v-256h-256v384l384 288z" />
<glyph unicode="&#xe906;" glyph-name="rope-thick" d="M623.25 409.891c-3.883 5.301-8.075 11.039-12.29 16.869 26.755 17.563 36.944 52.528 22.289 81.866-0.573 1.149-1.382 2.086-2.016 3.185 10.477 18.024 12.028 40.767 2.016 60.814-0.573 1.149-1.382 2.086-2.016 3.185 10.477 18.024 12.028 40.767 2.016 60.814-0.573 1.149-1.382 2.086-2.016 3.185 10.477 18.024 12.028 40.767 2.016 60.814-11.204 22.415-33.806 35.124-57.249 35.148v160.229c0 35.345-28.656 64.001-63.999 64.001s-64.001-28.656-64.001-64.001v-216.438l-28.626-14.312c-31.609-15.813-44.422-54.25-28.626-85.875 0.571-1.141 1.485-1.957 2.11-3.046-10.554-18.048-12.153-40.853-2.11-60.953 0.571-1.141 1.485-1.957 2.11-3.046-10.554-18.048-12.153-40.853-2.11-60.953 0.571-1.141 1.485-1.957 2.11-3.046-9.568-16.362-11.463-36.566-4.297-55.197-47.621-65.588-100.565-144.806-100.565-233.132 0.004-140.25 83.739-224.001 224.005-224.001s224.001 83.751 224.001 224.001c0 95.906-62.516 181.28-112.751 249.89zM512 64c-69.079 0-96.001 26.906-96.001 96.001 0 54.063 48.812 120.703 88.032 174.265 2.688 3.688 5.359 7.329 7.969 10.906 2.609-3.579 5.281-7.218 7.969-10.906 39.218-53.562 88.032-120.202 88.032-174.265 0-69.095-26.922-96.001-96.001-96.001z" />
<glyph unicode="&#xe907;" glyph-name="rope" d="M597.438 358.968c-11.090 15.148-23.346 31.958-33.378 47.282l26.252 13.126c15.812 7.906 22.218 27.126 14.312 42.938-4.7 9.418-13.518 14.94-23.146 16.644l8.834 4.418c15.812 7.906 22.218 27.126 14.312 42.938-4.704 9.41-13.54 14.928-23.182 16.628l8.87 4.434c15.812 7.906 22.218 27.126 14.312 42.938-4.7 9.418-13.518 14.94-23.146 16.644l8.834 4.418c15.812 7.906 22.218 27.126 14.312 42.938-7.89 15.812-27.11 22.188-42.938 14.312l-17.686-8.844v268.218c0 17.688-14.328 32-32 32s-32-14.312-32-32v-300.218l-46.312-23.156c-15.812-7.906-22.218-27.126-14.312-42.938 4.642-9.286 13.23-15.066 22.698-16.872l-8.384-4.192c-15.812-7.906-22.218-27.126-14.312-42.938 4.642-9.286 13.23-15.066 22.698-16.872l-8.384-4.192c-15.812-7.906-22.218-27.126-14.312-42.938 4.642-9.284 13.23-15.066 22.698-16.87l-8.384-4.192c-15.812-7.906-22.218-27.126-14.312-42.938 1.962-3.926 4.79-7.028 7.92-9.714-0.24-0.328-0.494-0.678-0.732-1.004-47.476-64.81-106.57-145.528-106.57-230.966 0-122.032 69.984-192 192-192s192 69.968 192 192c0 85.438-59.094 166.156-106.562 230.968zM512 0c-87.328 0-128 40.688-128 128 0 64.532 52.234 135.844 94.204 193.188 12.422 16.938 23.968 32.718 33.796 47.562 9.828-14.844 21.374-30.626 33.796-47.562 41.97-57.344 94.204-128.656 94.204-193.188 0-87.312-40.672-128-128-128z" />
<glyph unicode="&#xe908;" glyph-name="teasing-boy" d="M372.859 324.323c7.384 7.381 7.384 19.348 0 26.73-28.31 28.31-74.379 28.313-102.691 0-7.384-7.381-7.384-19.348 0-26.73 7.381-7.381 19.348-7.381 26.73 0 13.576 13.571 35.658 13.569 49.23 0 3.691-3.691 8.527-5.536 13.366-5.536s9.675 1.845 13.366 5.536zM651.138 351.053c-7.381-7.381-7.381-19.348 0-26.73 7.384-7.381 19.348-7.381 26.732 0 13.574 13.574 35.658 13.571 49.227 0 3.693-3.691 8.527-5.536 13.366-5.536s9.675 1.845 13.366 5.536c7.381 7.381 7.381 19.348 0 26.73-28.315 28.315-74.376 28.317-102.691 0zM662.952 258.583c-4.551 3.584-10.486 4.888-16.119 3.532-21.201-5.096-42.829-9.007-64.313-11.627-46.798-5.763-94.247-5.765-141.064 0.002-21.458 2.616-43.089 6.526-64.292 11.622-5.626 1.354-11.57 0.050-16.116-3.532-4.548-3.584-7.202-9.056-7.202-14.845v-21.784c0-45.593 26.174-86.594 66.423-106.11v-37.111c0-50.581 41.152-91.733 91.733-91.733s91.733 41.152 91.733 91.733v37.109c40.247 19.516 66.421 60.516 66.421 106.11v21.784c-0.005 5.793-2.658 11.265-7.204 14.85zM603.73 160.589v4.463c0 10.439-8.463 18.902-18.902 18.902s-18.902-8.463-18.902-18.902v-86.32c0-29.735-24.192-53.929-53.929-53.929s-53.929 24.192-53.929 53.929v86.32c0 10.439-8.463 18.902-18.902 18.902s-18.902-8.463-18.902-18.902v-4.463c-17.338 14.566-28.1 36.124-28.601 59.64 15.025-2.996 30.153-5.427 45.192-7.261 49.863-6.141 100.421-6.143 150.257-0.002 15.058 1.836 30.189 4.269 45.215 7.265-0.499-23.519-11.261-45.076-28.598-59.642zM960.076 354.62c0 26.089-9.366 50.546-26.507 69.807 6.928 141.759 10.656 236.502-34.179 323.783-30.541 59.463-79.976 109.158-146.933 147.701-78.083 44.951-167.153 66.993-257.601 63.782-79.47-2.835-153.447-39.951-204.352-102.202-65.821-3.714-125.747-39.446-157.939-94.771-2.771-4.766-5.444-9.647-7.941-14.509-44.866-87.338-41.133-182.083-34.2-323.866-16.473-18.583-26.503-42.997-26.503-69.722 0-55.113 42.588-100.435 96.576-104.86 22.481-72.439 82.043-154.52 177.975-244.96 48.653-45.868 111.093-68.803 173.53-68.803 62.44 0 124.877 22.935 173.53 68.803 95.929 90.438 155.491 172.519 177.972 244.958 53.988 4.43 96.572 49.752 96.572 104.86zM496.203 921.913c83.359 2.975 165.45-17.349 237.392-58.763 60.542-34.85 105.009-79.333 132.166-132.211 37.754-73.5 37.248-153.501 30.474-295.768l-42.222-2.327c-284.55-9.281-441.77 122.914-488.477 170.083l-45.482 230.954c44.008 53.622 107.743 85.594 176.148 88.033zM158.253 730.939c2.197 4.279 4.551 8.577 6.989 12.773 24.513 42.132 69.322 70.1 119.192 75.38l43.973-223.273c-30.068-68.999-81.457-105.278-161.289-113.98-9.59-1.044-16.853-9.144-16.853-18.791v-4.912c-8.109-1.477-15.896-3.877-23.249-7.105-6.011 132.388-5.106 209.155 31.238 279.907zM101.725 354.623c0 30.626 20.527 56.533 48.54 64.727v-106.66c0-7.606 0.517-15.351 1.493-23.218-28.773 7.698-50.033 33.985-50.033 65.152zM659.604 32.307c-82.766-78.024-212.43-78.027-295.196 0-115.36 108.756-176.337 205.711-176.337 280.38l0.002 133.834c76.973 12.376 131.549 50.229 165.849 115.121 29.080-26.73 76.718-63.9 144.301-96.425 100.477-48.353 213.971-72.099 337.714-70.589v-81.939c0-74.672-60.975-171.626-176.332-280.382zM872.247 289.471c0.976 7.868 1.493 15.613 1.493 23.218v83.383l32.825 1.807c10.172-12.111 15.707-27.204 15.707-43.259 0-31.164-21.255-57.45-50.026-65.15zM511.998 181.499c-10.439 0-18.902-8.463-18.902-18.902v-93.576c0-10.439 8.463-18.902 18.902-18.902s18.902 8.463 18.902 18.902v93.576c0 10.441-8.461 18.902-18.902 18.902z" />
<glyph unicode="&#xe909;" glyph-name="shake-hands" d="M555.997 126.344c17.535 9.286 24.6 30.699 15.236 48.347 0 0-17.442 32.781-27.053 50.595-4.892-23.056-18.366-30.814-50.157-58.342l13.757-25.894c6.228-11.638 30.401-24.265 48.217-14.707zM463.67 167.999l48.925 42.376c16.428 14.386 15.605 38.882 1.528 52.471-13.564 13.768-35.13 13.615-48.566 1.887l-48.939-42.503c-15.079-13.026-16.3-35.671-3.353-50.635 11.268-12.845 33.797-17.777 50.404-3.597zM635.495 168.449c18.665 9.992 23.995 31.6 15.259 48.489l-55.348 103.349 15.735 9.904 61.564-116.194c9.186-17.303 30.506-23.88 48.219-14.836 18.432 9.943 24.316 31.366 15.232 48.476l-64.003 120.537 16.3 9.775c0 0 42.335-81.475 57.582-110.505 9.426-17.571 31.237-23.878 48.245-14.705 17.879 9.452 24.556 30.761 15.219 48.463-47.936 90.786-37.516 71.685-57.055 103.708-57.698 80.125-141.818 135.127-224.655 203.729l-147.214-69.131c-30.404-13.974-62.399 0.565-75.013 26.589-13.77 28.668-1.645 62.091 26.241 75.591l35.221 16.532-113.138 0.321-119.855-164.014 78.109-71.827c3.289 7.231 8.156 13.717 14.233 18.997l87.703 76.156c23.377 19.974 58.778 17.945 79.485-5.627 10.212-11.895 15.079-26.511 13.91-41.566 20.463 4.624 41.258-2.697 54.668-18.007 16.441-18.959 18.547-45.612 5.96-66.203 13.113-2.117 24.906-8.657 33.549-18.636 19.292-22.337 18.253-54.579-0.565-75.142 12.896 1.902 28.143-4.919 35.323-15.965 0 0 37.329-67.796 50.89-93.51 6.116-11.677 30.459-24.226 48.198-14.747zM404.712 235.948l78.096 67.705c14.681 12.628 16.532 35.221 3.187 50.622-12.652 14.719-35.272 16.645-50.249 3.57-1.825-1.592-79.175-68.551-80.858-70.312-12.422-13.308-12.612-33.95-0.423-48.028 11.547-13.383 34.36-17.352 50.248-3.557zM336.121 295.574l107.125 92.854c14.9 12.767 16.57 35.35 3.34 50.622-13.179 15.040-35.54 16.415-50.261 3.595l-97.813-84.634c-22.671-14.309-25.792-43.776-12.626-58.893 10.943-12.845 34.012-17.739 50.234-3.544zM236.652 375.442c-13.294 15.376-11.368 38.021 3.211 50.622l87.73 76.169c14.694 12.537 37.288 11.392 50.402-3.597 13.166-15.323 11.766-37.582-3.211-50.622l-87.858-76.169c-13.744-12.034-36.286-12.382-50.274 3.597zM530.899 632.929l-159.132-74.692c-18.729-8.748-39.369-0.166-47.641 16.864-8.914 18.625-0.784 39.535 16.645 48.026l160.15 75.115c22.259 8.119 44.481 11.779 71.804 11.779 55.053 0 168.085-29.634 220.157-44.418l93.536-159.519-53.638-33.806c-12.847-12.318-23.353-47.052-51.481-65.535-57.586 78.034-158.253 159.379-250.401 226.185zM807.369 698.258l98.342 60.1 118.287-197.847-102.208-57.327-114.42 195.074zM0 572.058l138.183 200.97 101.653-81.5-134.999-187.303-104.838 67.834z" />
<glyph unicode="&#xe90a;" glyph-name="lets-talk" d="M277.174 328.654c70.078 0 118.915 92.779 118.915 176.032 0 84.1-48.887 142.827-118.915 142.827s-118.931-58.727-118.931-142.827c0-83.27 48.837-176.032 118.931-176.032zM277.174 630.919c60.254 0 102.32-51.907 102.32-126.233 0-83.436-48.754-159.438-102.32-159.438s-102.337 76.002-102.337 159.438c0 74.326 42.083 126.233 102.337 126.233zM277.158 311.462c-108.261 0-196.36-105.457-196.36-235.091 0-27.397 4.132-54.728 12.263-81.212l0.83-2.721 2.356-1.659c50.662-35.329 114.915-54.794 180.911-54.794 66.029 0 130.282 19.465 180.927 54.794l2.356 1.659 0.83 2.721c8.131 26.484 12.263 53.799 12.263 81.212 0 129.618-88.099 235.091-196.377 235.091zM446.237 2.809c-47.526-32.375-107.465-50.181-169.079-50.181s-121.537 17.806-169.063 50.181c-7.102 24.012-10.703 48.754-10.703 73.579 0 120.508 80.632 218.497 179.766 218.497s179.782-97.989 179.782-218.497c0-24.825-3.601-49.551-10.703-73.579zM746.842 647.513c-70.028 0-118.931-58.727-118.931-142.827 0-83.27 48.82-176.032 118.931-176.032 70.078 0 118.915 92.779 118.915 176.032 0 84.1-48.87 142.827-118.915 142.827zM746.842 345.248c-53.583 0-102.337 76.002-102.337 159.438 0 74.326 42.083 126.233 102.337 126.233s102.32-51.907 102.32-126.233c0-83.436-48.754-159.438-102.32-159.438zM746.826 311.462c-108.261 0-196.36-105.457-196.36-235.091 0-27.397 4.132-54.728 12.263-81.212l0.83-2.721 2.373-1.659c50.662-35.329 114.899-54.794 180.894-54.794 66.029 0 130.282 19.465 180.927 54.794l2.356 1.659 0.83 2.721c8.131 26.484 12.263 53.799 12.263 81.212 0 129.618-88.082 235.091-196.377 235.091zM915.921 2.809c-47.526-32.375-107.481-50.181-169.079-50.181s-121.537 17.806-169.063 50.181c-7.102 24.012-10.72 48.754-10.72 73.579 0 120.508 80.615 218.497 179.766 218.497s179.799-97.989 179.799-218.497c-0.017-24.825-3.601-49.551-10.703-73.579zM755.123 960h-421.76v-268.28h88.746l30.052-45.85 6.986 10.272c0 0 12.164 17.855 23.713 35.578h272.279l-0.017 268.28zM738.529 708.315h-264.712l-2.439-3.8c-6.654-10.305-13.873-21.091-19-28.725l-21.29 32.525h-81.129v235.091h388.572v-235.091zM549.304 798.239c20.544 0 37.304 16.744 37.304 37.304s-16.76 37.304-37.304 37.304c-20.577 0-37.321-16.727-37.321-37.304s16.744-37.304 37.321-37.304zM549.304 856.253c11.417 0 20.71-9.293 20.71-20.71s-9.309-20.71-20.71-20.71c-11.417 0-20.726 9.293-20.726 20.71s9.293 20.71 20.726 20.71zM626.783 798.239c20.56 0 37.304 16.744 37.304 37.304s-16.744 37.304-37.304 37.304c-20.544 0-37.304-16.744-37.304-37.304s16.76-37.304 37.304-37.304zM626.783 856.253c11.417 0 20.71-9.293 20.71-20.71s-9.293-20.71-20.71-20.71c-11.417 0-20.71 9.293-20.71 20.71s9.309 20.71 20.71 20.71zM471.792 798.239c20.56 0 37.304 16.744 37.304 37.304s-16.744 37.304-37.304 37.304c-20.56 0-37.304-16.727-37.304-37.304s16.744-37.304 37.304-37.304zM471.792 856.253c11.417 0 20.71-9.293 20.71-20.71s-9.293-20.71-20.71-20.71c-11.417 0-20.71 9.293-20.71 20.71s9.293 20.71 20.71 20.71z" />
<glyph unicode="&#xe90b;" glyph-name="calendar" d="M832.556 890.484v53.66h-66.782v-53.658h-124.66v53.658h-66.782v-53.658h-124.66v53.658h-66.782v-53.658h-124.66v53.658h-66.786v-53.658h-191.444v-938.632h1024v938.63h-191.444zM957.218 18.636h-890.436v589.78h890.434v-589.78zM957.218 675.198h-890.436v148.504h124.66v-53.642h66.782v53.642h124.66v-53.642h66.782v53.642h124.66v-53.642h66.782v53.642h124.66v-53.642h66.782v53.642h124.66v-148.504zM126.886 536.81v-195.896h195.896v195.896h-195.896zM256 407.698h-62.33v62.33h62.33v-62.33zM126.886 286.978v-195.896h195.896v195.896h-195.896zM256 157.864h-62.33v62.33h62.33v-62.33zM701.218 536.81v-195.896h195.896v195.896h-195.896zM830.33 407.698h-62.33v62.33h62.33v-62.33zM701.218 286.978v-195.896h195.896v195.896h-195.896zM830.33 157.864h-62.33v62.33h62.33v-62.33zM414.052 536.81v-195.896h195.896v195.896h-195.896zM543.166 407.698h-62.33v62.33h62.33v-62.33zM414.052 286.978v-195.896h195.896v195.896h-195.896zM543.166 157.864h-62.33v62.33h62.33v-62.33z" />
<glyph unicode="&#xe90c;" glyph-name="meeting-3" d="M201.105 697.519c64.285 0 116.586 52.303 116.586 116.586 0 64.285-52.3 116.586-116.586 116.586s-116.586-52.3-116.586-116.586c0-64.283 52.3-116.586 116.586-116.586zM395.414 814.105c0-64.285 52.298-116.586 116.586-116.586s116.586 52.303 116.586 116.586c0 64.285-52.3 116.586-116.586 116.586s-116.586-52.298-116.586-116.586zM822.895 930.69c-64.285 0-116.586-52.3-116.586-116.586s52.3-116.586 116.586-116.586c64.288 0 116.586 52.303 116.586 116.586 0 64.288-52.3 116.586-116.586 116.586zM822.895 619.795c-62.549 0-118.508-28.709-155.422-73.633-10.068 12.293-21.579 23.423-34.292 33.035-35.131 26.558-77.035 40.598-121.179 40.598h-0.003c-44.139 0-86.045-14.037-121.177-40.598-12.713-9.609-24.226-20.742-34.292-33.033-36.914 44.924-92.875 73.63-155.422 73.63-97.595 0-179.143-69.887-197.299-162.238h1016.391c-18.167 92.351-99.712 162.238-197.307 162.238zM0 211.432c0-21.465 17.4-38.862 38.862-38.862h123.381v-168.401c0-21.465 17.4-38.862 38.862-38.862s38.862 17.397 38.862 38.862v168.401h544.066v-168.401c0-21.465 17.4-38.862 38.862-38.862s38.862 17.397 38.862 38.862v168.401h123.381c21.462 0 38.862 17.397 38.862 38.862v168.401h-1024v-168.401z" />
<glyph unicode="&#xe90d;" glyph-name="presentation" d="M216.085-27.847h-216.085v144.614c0 15.464 12.957 28.421 28.421 28.421h160.078c15.464 0 28.421-12.957 28.421-28.421v-144.614h-0.836zM172.199 266.815c0-35.433-28.724-64.157-64.157-64.157s-64.157 28.724-64.157 64.157c0 35.433 28.724 64.157 64.157 64.157s64.157-28.724 64.157-64.157zM484.833-27.847h-216.085v144.614c0 15.464 12.957 28.421 28.421 28.421h160.078c15.464 0 28.421-12.957 28.421-28.421v-144.614h-0.836zM440.947 266.815c0-35.433-28.724-64.157-64.157-64.157s-64.157 28.724-64.157 64.157c0 35.433 28.724 64.157 64.157 64.157s64.157-28.724 64.157-64.157zM754.416-27.847h-216.085v144.614c0 15.464 12.957 28.421 28.421 28.421h160.078c15.464 0 28.421-12.957 28.421-28.421v-144.614h-0.836zM710.531 266.815c0-35.433-28.724-64.157-64.157-64.157s-64.157 28.724-64.157 64.157c0 35.433 28.724 64.157 64.157 64.157s64.157-28.724 64.157-64.157zM1023.164-27.847h-216.085v144.614c0 15.464 12.957 28.421 28.421 28.421h160.078c15.464 0 28.421-12.957 28.421-28.421v-144.614h-0.836zM967.993 270.994c0-34.509-27.975-62.485-62.485-62.485s-62.485 27.975-62.485 62.485c0 34.509 27.975 62.485 62.485 62.485s62.485-27.975 62.485-62.485zM897.358 728.242c0-44.435-36.022-80.457-80.457-80.457s-80.457 36.022-80.457 80.457c0 44.435 36.022 80.457 80.457 80.457s80.457-36.022 80.457-80.457zM816.901 611.213c-105.535 0-190.798-85.264-190.798-190.798h381.597c0 104.699-85.264 190.798-190.798 190.798zM598.518 923.847h-598.518v-371.984h598.518v371.984z" />
<glyph unicode="&#xe90e;" glyph-name="communication-press" d="M851.37 160.916c-0.814 1.038-1.603 2.093-2.355 3.172-7.606 3.382-14.765 7.52-21.409 12.302h-759.196v634.016h705.155v-139.002c0-14.041 11.376-25.414 25.412-25.414h134.927l0.005-47.561h4.186c23.588 0 45.599-6.813 64.219-18.537v103.922c0 5.441-2.16 10.657-6.006 14.517l-174.49 174.482c-3.841 3.846-9.064 6.006-14.512 6.006h-745.734c-33.954-0.002-61.573-27.615-61.573-61.559v-647.72c0-33.944 27.619-61.564 61.571-61.564h789.799v52.941zM549.395 534.018c0 13.853-11.233 25.083-25.086 25.083h-356.259c-13.853 0-25.083-11.231-25.083-25.083 0-13.85 11.231-25.086 25.083-25.086h356.259c13.853 0 25.086 11.235 25.086 25.086zM168.050 383.517h195.651c13.853 0 25.083 11.233 25.083 25.086s-11.231 25.083-25.083 25.083h-195.651c-13.853 0-25.083-11.231-25.083-25.083s11.231-25.086 25.083-25.086zM168.050 258.1h324.906c13.853 0 25.086 11.231 25.086 25.086 0 13.845-11.231 25.083-25.086 25.083h-324.906c-13.853 0-25.083-11.238-25.083-25.083 0-13.855 11.231-25.086 25.083-25.086zM969.037 72.144h-20.087v106.879c6.389 3.715 11.19 9.814 13.202 17.101 35.211 9.716 61.076 41.963 61.076 80.265v46.98h-52.738v49.959h52.738v51.638h-52.738v44.966h52.738v9.357c0 45.992-37.281 83.277-83.277 83.277h-40.105c-45.994 0-83.275-37.286-83.275-83.277v-9.357h52.738v-44.97h-52.738v-51.638h52.738v-49.959h-52.738v-46.98c0-38.302 25.862-70.549 61.073-80.265 2.008-7.287 6.813-13.386 13.202-17.101v-106.879h-20.087c-30.356 0-54.963-24.609-54.963-54.96h208.203c0 30.356-24.607 54.965-54.963 54.965zM159.763 629.905c7.606 0 13.795 6.192 13.795 13.798v22.202h18.753c33.213 0 53.843 18.62 53.843 48.597 0 29.51-20.63 47.842-53.843 47.842h-35.549c-7.606 0-13.795-6.187-13.795-13.798v-104.843c0-7.606 6.189-13.798 13.795-13.798h3.001zM173.558 731.755h18.753c23.254 0 23.254-12.538 23.254-17.253 0-4.922 0-18.006-23.254-18.006h-18.753v35.259zM363.018 714.502c0 29.51-20.632 47.842-53.846 47.842h-35.545c-7.609 0-13.795-6.187-13.795-13.798v-104.843c0-7.606 6.187-13.798 13.795-13.798h3.001c7.606 0 13.793 6.192 13.793 13.798v22.202h18.753c0.984 0 1.965 0.019 2.984 0.060l22.176-30.399c2.586-3.546 6.756-5.663 11.143-5.663h4.194l0.050 0.007c7.401 0.236 13.35 6.33 13.35 13.791 0 3.301-1.172 6.468-3.31 8.968l-16.313 22.349c12.683 8.485 19.57 22.247 19.57 39.484zM309.172 696.499h-18.753v35.259h18.753c23.257 0 23.257-12.538 23.257-17.253 0-4.925 0-18.006-23.257-18.006zM455.001 731.755c7.606 0 13.795 6.187 13.795 13.791v3.001c0 7.611-6.189 13.798-13.795 13.798h-65.548c-7.606 0-13.795-6.187-13.795-13.798v-104.843c0-7.606 6.189-13.798 13.795-13.798h67.648c7.606 0 13.795 6.192 13.795 13.798v3.001c0 7.604-6.189 13.795-13.795 13.795h-50.852v21.906h41.853c7.606 0 13.795 6.192 13.795 13.795v3.003c0 7.604-6.189 13.795-13.795 13.795h-41.853v18.758l48.752-0.002zM578.269 669.094c0.233 30.351-26.398 38.402-42.315 43.21-18.625 5.632-20.39 8.037-20.39 13 0 4.036 8.468 6.454 16.655 6.454 6.711 0 14.493-1.996 18.92-4.851 3.091-1.996 6.961-2.66 10.481-1.872 3.577 0.798 6.746 3.043 8.69 6.156l1.5 2.4c3.972 6.354 2.081 14.834-4.217 18.904-9.414 6.080-22.971 9.854-35.378 9.854-28.26 0-47.245-14.881-47.245-37.043 0-29.544 26.224-37.49 41.896-42.234 19.156-5.803 20.847-8.263 20.797-13.864 0-6.885-12.264-8.704-18.753-8.704-8.683 0-18.442 3.903-23.726 9.487-2.543 2.689-6.125 4.256-9.938 4.315-3.748-0.014-7.242-1.45-9.835-4.034l-2.1-2.1c-5.334-5.337-5.375-14.050-0.086-19.435 11.412-11.612 28.922-18.823 45.689-18.823 29.067-0.010 49.354 16.124 49.354 39.179zM637.945 660.497c-8.683 0-18.442 3.903-23.731 9.487-2.543 2.689-6.12 4.256-9.935 4.313-3.748-0.014-7.242-1.45-9.833-4.034l-2.1-2.1c-5.337-5.337-5.38-14.050-0.088-19.435 11.412-11.612 28.924-18.823 45.689-18.823 29.053 0 49.35 16.134 49.35 39.188 0.231 30.351-26.398 38.402-42.313 43.21-18.634 5.632-20.39 8.037-20.39 13 0 4.036 8.468 6.454 16.653 6.454 6.706 0 14.493-1.996 18.915-4.851 3.091-1.993 6.956-2.665 10.485-1.872 3.582 0.798 6.749 3.043 8.694 6.156l1.5 2.4c3.97 6.354 2.079 14.834-4.217 18.904-9.418 6.080-22.971 9.854-35.378 9.854-28.258 0-47.247-14.881-47.247-37.043 0-29.544 26.226-37.49 41.901-42.234 19.154-5.803 20.847-8.263 20.797-13.864 0-6.889-12.267-8.711-18.753-8.711z" />
<glyph unicode="&#xe90f;" glyph-name="meeting-2" d="M681.576 623.395l-339.149 2.329c-22.441 0-42.764-17.995-42.764-42.764 0-22.441 17.995-42.764 42.764-42.764l127.869-0.847-2.117-457.28c0-22.441 17.995-42.764 42.764-42.764 22.441 0 42.764 17.995 42.764 42.764l2.117 456.645 125.964-0.847c24.769 0 42.764 20.112 42.764 42.764s-18.418 42.764-42.976 42.764zM80.972 861.35c-44.881 0-80.871-35.99-80.871-80.871-2.329-44.881 35.99-82.988 80.871-82.988s80.871 38.107 80.871 80.871c2.117 44.881-35.99 82.988-80.871 82.988zM943.030 852.459c-44.881 0-80.871-35.99-80.871-80.871-2.329-44.881 35.99-82.988 80.871-82.988s80.871 35.99 80.871 80.871c2.329 44.669-35.99 82.988-80.871 82.988zM285.478 34.648c-23.923 0-43.399 19.477-43.399 43.399v258.278h-184.606c-23.923 0-43.399 19.477-43.399 43.399v210.645c0 23.923 19.477 43.399 43.399 43.399s43.399-19.477 43.399-43.399v-167.246h184.606c23.923 0 43.399-19.477 43.399-43.399v-301.678c0-23.923-19.477-43.399-43.399-43.399zM719.471 34.648c23.923 0 43.399 19.477 43.399 43.399v258.278h184.606c23.923 0 43.399 19.477 43.399 43.399v210.645c0 23.923-19.477 43.399-43.399 43.399s-43.399-19.477-43.399-43.399v-167.246h-184.606c-23.923 0-43.399-19.477-43.399-43.399v-301.678c0-23.923 19.477-43.399 43.399-43.399z" />
<glyph unicode="&#xe910;" glyph-name="group2" d="M934.33 340.749c-0.432 0.25-0.874 0.482-1.308 0.724 1.012 11.902 1.558 23.936 1.558 36.096 0 168.968-99.698 315.065-243.342 382.623 0.002 0.514 0.038 1.022 0.038 1.54 0 99.012-80.264 179.276-179.276 179.276s-179.276-80.264-179.276-179.276c0-0.514 0.036-1.022 0.038-1.54-143.646-67.56-243.344-213.658-243.344-382.623 0-12.16 0.546-24.19 1.558-36.090-0.436-0.25-0.878-0.482-1.314-0.73-85.742-49.506-115.122-159.152-65.616-244.896 33.208-57.514 93.466-89.668 155.428-89.668 30.41 0 61.238 7.748 89.47 24.048 0.482 0.28 0.94 0.586 1.418 0.868 68.526-47.938 151.85-76.11 241.642-76.11 89.79 0 173.112 28.172 241.638 76.108 0.48-0.282 0.934-0.586 1.416-0.866 28.234-16.302 59.056-24.052 89.472-24.052 61.956 0 122.22 32.158 155.424 89.668 49.502 85.746 20.126 195.394-65.624 244.9zM512.001 864.176c56.488 0 102.444-45.954 102.444-102.444s-45.956-102.444-102.444-102.444c-56.488 0-102.444 45.954-102.444 102.444 0.002 56.49 45.958 102.444 102.444 102.444zM278.259 158.976c-7.084-26.43-24.034-48.526-47.734-62.206-15.582-8.998-33.236-13.754-51.050-13.754-36.578 0-70.638 19.638-88.89 51.252-28.244 48.92-11.422 111.696 37.5 139.942 15.582 9 33.238 13.754 51.052 13.754h0.008c36.57 0 70.628-19.638 88.88-51.252 13.682-23.696 17.316-51.302 10.234-77.736zM696.151 85.076c-53.352-33.708-116.506-53.252-184.148-53.252-67.646 0-130.802 19.544-184.156 53.252 37.152 55.048 42.152 128.672 6.716 190.054-33.204 57.512-93.462 89.668-155.42 89.668-0.002 0-0.002 0-0.008 0-4.198 0-8.4-0.162-12.606-0.46-0.166 4.394-0.276 8.802-0.276 13.234 0 132.446 74.868 247.714 184.496 305.763 29.088-59.716 90.358-100.876 161.252-100.876s132.162 41.156 161.252 100.876c109.628-58.050 184.496-173.316 184.496-305.763 0-4.43-0.11-8.838-0.276-13.23-4.2 0.294-8.4 0.458-12.592 0.458-0.006 0-0.010 0-0.016 0-61.956-0.002-122.226-32.16-155.428-89.672-35.438-61.384-30.436-135.006 6.714-190.052zM933.412 134.268c-18.252-31.614-52.31-51.252-88.888-51.252-17.814 0-35.468 4.756-51.056 13.756-48.92 28.244-65.74 91.022-37.496 139.94 18.25 31.614 52.312 51.252 88.89 51.256h0.016c17.804 0 35.454-4.754 51.038-13.754 48.922-28.244 65.74-91.024 37.496-139.946z" />
<glyph unicode="&#xe911;" glyph-name="communication-lines" d="M442.935 526.913h-253.69c-21.498 0-38.926-17.428-38.926-38.926s17.428-38.926 38.926-38.926h253.69c21.498 0 38.926 17.428 38.926 38.926 0 21.502-17.428 38.926-38.926 38.926zM442.935 430.295h-253.69c-21.498 0-38.926-17.428-38.926-38.926s17.428-38.926 38.926-38.926h253.69c21.498 0 38.926 17.428 38.926 38.926s-17.428 38.926-38.926 38.926zM442.935 333.675h-253.69c-21.498 0-38.926-17.428-38.926-38.926s17.428-38.926 38.926-38.926h253.69c21.498 0 38.926 17.428 38.926 38.926s-17.428 38.926-38.926 38.926zM892.228 960h-368.651c-72.040 0-130.652-58.608-130.652-130.652v-156.802h-261.155c-72.040 0-130.652-58.622-130.652-130.678v-300.999c0-72.044 58.612-130.652 130.652-130.652h49.28l-11.13-132.020c-1.918-22.756 16.084-42.2 38.782-42.196 8.494 0 16.932 2.774 23.916 8.208l213.268 166.006h54.534c72.044 0 130.654 58.608 130.654 130.652v115.578l160.306-124.78c26.574-20.686 65.56 0 62.698 33.988l-11.13 132.020h49.28c72.040 0 130.652 58.608 130.652 130.652v301.025c-0.002 72.042-58.614 130.65-130.654 130.65zM553.225 240.869c0-29.114-23.688-52.802-52.804-52.802h-67.9c-8.662 0-17.076-2.888-23.91-8.208l-153.642-119.598 7.216 85.61c1.912 22.688-16.006 42.196-38.788 42.196h-91.626c-29.114 0-52.802 23.688-52.802 52.802v300.999c0 29.13 23.688 52.828 52.802 52.828 17.786 0 350.941 0 368.651 0 29.116 0 52.804-23.698 52.804-52.828 0-32.43 0-267.881 0-300.999zM945.028 528.323v0c0-29.114-23.688-52.802-52.802-52.802h-91.628c-22.768 0-40.704-19.494-38.788-42.196l7.216-85.61-137.954 107.386v86.766c0 72.056-58.612 130.678-130.654 130.678h-29.646v156.802c0 29.116 23.688 52.802 52.804 52.802h368.651c29.114 0 52.802-23.684 52.802-52.802v-301.025zM834.752 814.382h-253.69c-21.498 0-38.926-17.428-38.926-38.926s17.428-38.926 38.926-38.926h253.69c21.498 0 38.926 17.428 38.926 38.926s-17.428 38.926-38.926 38.926zM834.752 717.762h-208.414c-21.498 0-38.926-17.428-38.926-38.926s17.428-38.926 38.926-38.926h208.414c21.498 0 38.926 17.428 38.926 38.926s-17.428 38.926-38.926 38.926zM834.752 621.139h-145.34c-21.498 0-38.926-17.428-38.926-38.926s17.428-38.926 38.926-38.926h145.34c21.498 0 38.926 17.428 38.926 38.926 0 21.5-17.428 38.926-38.926 38.926z" />
<glyph unicode="&#xe912;" glyph-name="communication-dots" d="M892.206 672.561h-261.139v156.794c-0.002 72.040-58.608 130.646-130.644 130.646h-368.631c-72.040 0-130.646-58.606-130.646-130.646v-301.011c0-72.040 58.608-130.646 130.646-130.646h49.278l-11.13-132.014c-2.868-33.996 36.178-54.626 62.696-33.986l160.298 124.776v-115.572c0-72.040 58.608-130.646 130.646-130.646h54.532l213.256-165.998c26.582-20.686 65.56 0.012 62.696 33.986l-11.13 132.014h49.278c72.040 0 130.646 58.606 130.646 130.646v300.983c-0.006 72.056-58.612 130.674-130.65 130.674zM392.931 541.889v-86.76l-137.95-107.38 7.218 85.604c1.916 22.69-16.002 42.192-38.786 42.192h-91.622c-29.114 0-52.798 23.686-52.798 52.798v301.011c0 29.114 23.684 52.798 52.798 52.798h368.631c29.112 0 52.798-23.684 52.798-52.798v-156.794h-29.644c-72.036 0-130.646-58.618-130.646-130.672zM945.004 240.907c0-29.112-23.684-52.798-52.798-52.798h-91.624c-22.772 0-40.702-19.496-38.786-42.194l7.22-85.606-153.638 119.592c-6.834 5.32-15.248 8.208-23.91 8.208h-67.896c-29.112 0-52.798 23.686-52.798 52.798 0 33.116 0 268.553 0 300.981 0 29.128 23.686 52.824 52.798 52.824h368.631c29.114 0 52.798-23.696 52.798-52.824v-300.981zM846.844 390.757c0-18.659-15.126-33.786-33.786-33.786s-33.786 15.126-33.786 33.786c0 18.659 15.126 33.786 33.786 33.786s33.786-15.126 33.786-33.786zM741.673 390.757c0-18.659-15.126-33.786-33.786-33.786s-33.786 15.126-33.786 33.786c0 18.659 15.126 33.786 33.786 33.786s33.786-15.126 33.786-33.786zM636.503 390.757c0-18.659-15.126-33.786-33.786-33.786s-33.786 15.126-33.786 33.786c0 18.659 15.126 33.786 33.786 33.786s33.786-15.126 33.786-33.786z" />
<glyph unicode="&#xe913;" glyph-name="suspicious-object" horiz-adv-x="1463" d="M588.8 871.497c-26.624-5.851-53.394-23.406-70.363-46.080-6.29-8.631-14.921-26.917-18.286-38.912-2.779-10.094-3.218-16.53-3.803-49.152l-0.731-37.595-243.273-0.878-8.338-4.096c-10.679-5.266-19.602-15.214-22.382-25.161-1.902-6.437-2.194-45.787-1.902-312.32l0.439-305.006 4.389-7.899c5.266-9.509 13.458-16.823 22.382-19.749 5.998-2.048 56.174-2.341 484.498-2.341s478.501 0.293 484.498 2.341c8.923 2.926 17.115 10.24 22.382 19.749l4.389 7.899 0.439 305.006c0.293 266.533 0 305.883-1.902 312.32-2.779 9.947-11.703 19.895-22.382 25.161l-8.338 4.096-243.273 0.878-0.731 37.595c-0.731 43.301-1.755 48.421-12.727 71.387-15.36 31.89-48.128 57.051-82.505 63.342-13.605 2.487-270.921 2.048-282.478-0.585zM860.306 788.114c7.899-2.779 15.36-9.801 19.017-17.554 2.341-5.12 2.779-9.801 2.779-38.327v-32.622h-301.349v32.622c0 36.279 0.731 39.643 10.386 48.859 9.947 9.362 4.535 9.070 139.703 9.070 107.374 0.146 123.904-0.146 129.463-2.048zM779.703 587.703c16.677-2.926 36.425-9.216 50.761-16.384 45.934-22.528 72.119-67.438 70.363-120.832-0.439-15.067-1.17-19.31-4.389-27.063-11.703-28.087-26.478-43.301-76.507-78.409-11.264-7.899-22.382-16.091-24.576-18.286-7.607-7.022-11.557-15.36-12.873-28.233-2.779-24.43-14.043-35.694-39.643-39.205-32.475-4.681-57.49 9.947-62.318 36.425-1.755 9.801 0.146 28.087 4.096 38.766 4.535 11.703 16.384 27.648 27.941 37.157 5.705 4.681 19.31 14.043 30.281 20.919 14.336 8.923 23.406 15.799 32.622 24.722 15.799 15.506 17.993 21.065 17.115 42.13-0.439 12.288-1.17 15.214-4.827 21.943-5.12 9.362-10.386 14.043-21.211 19.163-7.607 3.511-9.362 3.803-30.72 3.803-25.6 0-30.866-1.463-42.13-11.557-8.338-7.607-11.557-16.384-13.166-35.694-1.755-19.017-4.827-26.624-14.629-35.694-28.233-26.039-81.774-17.554-93.184 14.921-6.583 18.432 1.317 57.929 16.969 85.87 7.753 13.605 29.842 36.718 42.569 44.032 20.041 11.849 47.104 20.626 72.119 23.552 16.53 2.048 58.807 0.878 75.337-2.048zM751.177 219.794c25.746-3.803 40.229-18.578 43.008-43.886 3.218-30.281-6.583-51.931-27.941-61.44-15.653-6.875-41.691-7.461-59.685-1.17-7.314 2.487-11.41 5.266-17.701 11.41-10.825 10.679-13.751 19.602-13.751 40.96 0 16.823 2.487 26.624 8.777 35.109 11.703 15.799 37.888 23.259 67.291 19.017z" />
<glyph unicode="&#xe914;" glyph-name="inside" d="M303.999 432c0-13.249 5.376-25.249 14.048-33.92l159.999-159.998c8.705-8.705 20.705-14.082 33.951-14.082s25.248 5.377 33.919 14.082l160.001 159.998c8.705 8.671 14.081 20.671 14.081 33.92 0 26.496-21.472 48-48 48-13.248 0-25.248-5.376-33.919-14.048l-78.080-78.080v524.128c0 26.496-21.472 48-48 48s-48-21.504-48-48v-524.128l-78.080 78.049c-8.672 8.704-20.672 14.080-33.92 14.080-26.527 0-48-21.504-48-48zM880 736h-176c-26.528 0-48-21.504-48-48s21.472-48 48-48h144v-608h-671.999v608h144c26.528 0 48 21.504 48 48s-21.472 48-48 48h-176c-35.295 0-63.999-28.735-63.999-63.999v-671.999c0-35.264 28.704-64.001 63.999-64.001h735.999c35.295 0 63.999 28.736 63.999 64.001v671.999c0.001 35.264-28.703 63.999-63.998 63.999z" />
<glyph unicode="&#xe915;" glyph-name="outside" d="M351.999 704.001c13.248 0 25.248 5.376 33.951 14.080l78.048 78.048v-524.128c0-26.496 21.472-48 48-48s48 21.504 48 48v524.128l78.080-78.048c8.672-8.705 20.672-14.080 33.919-14.080 26.528 0 48 21.504 48 48 0 13.248-5.376 25.248-14.047 33.951l-159.998 159.999c-8.705 8.672-20.705 14.048-33.953 14.048s-25.248-5.376-33.92-14.080l-159.999-160.001c-8.705-8.672-14.081-20.672-14.081-33.919 0-26.496 21.473-48 48-48zM880 640h-176c-26.528 0-48-21.504-48-48s21.472-48 48-48h144v-512h-671.999v512h144c26.528 0 48 21.504 48 48s-21.472 48-48 48h-176c-35.295 0-63.999-28.735-63.999-63.999v-575.999c0-35.264 28.704-64.001 63.999-64.001h735.999c35.295 0 63.999 28.736 63.999 64.001v575.999c0.001 35.264-28.703 63.999-63.998 63.999z" />
<glyph unicode="&#xe916;" glyph-name="terrorism" d="M62.054 356.762l-23.466-25.77c-6.348-6.964-5.854-17.766 1.11-24.116 3.294-2.97 7.406-4.438 11.502-4.438 4.626 0 9.25 1.878 12.612 5.564l23.466 25.77c6.348 6.964 5.854 17.766-1.11 24.116-6.978 6.332-17.764 5.836-24.114-1.126zM119.468 345.6c-9.438 0-17.066-7.646-17.066-17.066v-34.134c0-9.42 7.628-17.066 17.066-17.066s17.066 7.646 17.066 17.066v34.134c0 9.42-7.628 17.066-17.066 17.066zM176.88 356.762c-6.332 6.98-17.136 7.476-24.098 1.126-6.98-6.332-7.476-17.134-1.126-24.098l23.466-25.788c3.362-3.686 7.97-5.564 12.612-5.564 4.096 0 8.208 1.468 11.486 4.438 6.98 6.348 7.476 17.134 1.126 24.116l-23.466 25.77zM443.734 448c0-103.51 84.224-187.734 187.734-187.734s187.734 84.224 187.734 187.734c0 103.51-84.224 187.734-187.734 187.734s-187.734-84.224-187.734-187.734zM631.468 601.6c84.702 0 153.6-68.916 153.6-153.6s-68.898-153.6-153.6-153.6c-84.702 0-153.6 68.916-153.6 153.6s68.898 153.6 153.6 153.6zM989.868 755.2v68.266c0 18.824-15.326 34.134-34.134 34.134h-1.366c-8.31 57.804-58.044 102.4-118.1 102.4-43.486 0-81.494-23.432-102.4-58.248-20.908 34.816-58.914 58.248-102.4 58.248s-81.494-23.432-102.4-58.248c-20.908 34.816-58.914 58.248-102.4 58.248-60.074 0-109.79-44.596-118.102-102.4h-1.366c-18.824 0-34.134-15.308-34.134-34.134h-17.066c-84.702 0-153.6-68.916-153.6-153.6v-273.066c0-9.42 7.628-17.066 17.066-17.066s17.066 7.646 17.066 17.066v273.066c0 65.878 53.606 119.466 119.466 119.466h17.066v-34.132c0-18.824 15.308-34.134 34.134-34.134v-546.134c-18.824 0-34.134-15.308-34.134-34.134v-68.266c0-18.824 15.308-34.134 34.134-34.134h1.366c8.312-57.804 58.026-102.4 118.102-102.4 43.486 0 81.494 23.432 102.4 58.248 20.906-34.816 58.914-58.248 102.4-58.248s81.494 23.432 102.4 58.248c20.906-34.816 58.914-58.248 102.4-58.248 60.058 0 109.79 44.596 118.102 102.4h1.366c18.808 0 34.134 15.308 34.134 34.134v68.268c0 18.824-15.326 34.134-34.134 34.134v546.132c18.808 0 34.134 15.31 34.134 34.134zM836.268 925.866c41.198 0 75.69-29.372 83.592-68.266h-167.186c7.902 38.894 42.394 68.266 83.594 68.266zM631.468 925.866c41.198 0 75.69-29.372 83.592-68.266h-167.184c7.9 38.894 42.392 68.266 83.592 68.266zM426.668 925.866c41.198 0 75.69-29.372 83.592-68.266h-167.186c7.902 38.894 42.394 68.266 83.594 68.266zM426.668-29.866c-41.198 0-75.69 29.372-83.592 68.266h167.186c-7.904-38.894-42.396-68.266-83.594-68.266zM631.468-29.866c-41.198 0-75.69 29.372-83.592 68.266h167.184c-7.902-38.894-42.394-68.266-83.592-68.266zM836.268-29.866c-41.198 0-75.69 29.372-83.592 68.266h167.186c-7.904-38.894-42.396-68.266-83.594-68.266zM955.75 72.534h-648.55v68.266h648.534l0.016-68.266zM529.068 635.734c9.438 0 17.066 7.646 17.066 17.066v68.266h170.666v-68.266c0-9.42 7.628-17.066 17.066-17.066s17.066 7.646 17.066 17.066v68.266h170.668v-546.134h-170.666v68.268c0 9.42-7.628 17.066-17.066 17.066s-17.066-7.646-17.066-17.066v-68.266h-170.666v68.266c0 9.42-7.628 17.066-17.066 17.066s-17.070-7.646-17.070-17.066v-68.266h-170.666v546.132h170.666v-68.266c0-9.42 7.63-17.066 17.068-17.066zM307.2 755.2v68.266h648.534l0.018-68.266h-648.552zM529.58 430.934c9.42 0 17.066 7.646 17.066 17.066s-7.646 17.066-17.066 17.066h-0.188c-9.404 0-16.964-7.646-16.964-17.066s7.73-17.066 17.152-17.066zM559.566 392.652h-0.188c-9.404 0-16.964-7.646-16.964-17.066s7.714-17.066 17.152-17.066c9.42 0 17.066 7.646 17.066 17.066s-7.646 17.066-17.066 17.066zM631.98 362.65h-0.188c-9.404 0-16.964-7.646-16.964-17.066 0-9.438 7.714-17.066 17.152-17.066 9.42 0 17.066 7.628 17.066 17.066 0 9.42-7.646 17.066-17.066 17.066zM631.468 430.934c9.438 0 17.066 7.646 17.066 17.066v102.4c0 9.42-7.628 17.066-17.066 17.066s-17.066-7.646-17.066-17.066v-102.4c-0.002-9.42 7.628-17.066 17.066-17.066zM559.582 503.348c9.42 0 17.066 7.646 17.066 17.066s-7.646 17.066-17.066 17.066h-0.188c-9.404 0-16.964-7.646-16.964-17.066s7.714-17.066 17.152-17.066z" />
<glyph unicode="&#xe917;" glyph-name="settings" horiz-adv-x="1071" d="M46.545 773.818h139.636v-46.545c0-25.706 20.839-46.545 46.545-46.545h279.273c25.706 0 46.545 20.839 46.545 46.545v46.545h465.455c25.706 0 46.545 20.839 46.545 46.545s-20.839 46.545-46.545 46.545h-465.455v46.545c0 25.706-20.839 46.545-46.545 46.545h-279.273c-25.706 0-46.545-20.839-46.545-46.545v-46.545h-139.636c-25.706 0-46.545-20.839-46.545-46.545s20.839-46.545 46.545-46.545zM279.273 866.909h186.182v-93.091h-186.182v93.091zM1024 494.545h-139.636v46.545c0 25.706-20.839 46.545-46.545 46.545h-279.273c-25.706 0-46.545-20.839-46.545-46.545v-46.545h-465.455c-25.706 0-46.545-20.839-46.545-46.545s20.839-46.545 46.545-46.545h465.455v-46.545c0-25.706 20.839-46.545 46.545-46.545h279.273c25.706 0 46.545 20.839 46.545 46.545v46.545h139.636c25.706 0 46.545 20.839 46.545 46.545s-20.839 46.545-46.545 46.545zM791.273 401.455h-186.182v93.091h186.182v-93.091zM1024 122.182h-465.455v46.545c0 25.706-20.839 46.545-46.545 46.545h-279.273c-25.706 0-46.545-20.839-46.545-46.545v-46.545h-139.636c-25.706 0-46.545-20.839-46.545-46.545s20.839-46.545 46.545-46.545h139.636v-46.545c0-25.706 20.839-46.545 46.545-46.545h279.273c25.706 0 46.545 20.839 46.545 46.545v46.545h465.455c25.706 0 46.545 20.839 46.545 46.545s-20.839 46.545-46.545 46.545zM465.455 29.091h-186.182v93.091h186.182v-93.091z" />
<glyph unicode="&#xe918;" glyph-name="battle" d="M400.487 658.133v247.596c0 17.010-2.363 35.708-9.315 45.766-168.349 47.116-187.722-116.71-187.722-116.71-5.4-20.588-8.1-58.861-9.45-98.35 8.775 2.093 17.483 3.375 25.853 3.375v0c24.436 0 45.901-9.653 60.481-27.203 18.293-22.073 24.571-53.731 19.508-98.35h43.741c27.271 0 50.221 18.698 56.904 43.876zM916.47 303.479h-27.541c-54.946 0-99.767 35.911-99.767 80.124v43.876c-17.753-12.96-41.176-20.993-67.029-20.993h-27.541c-55.014 0-99.835 35.843-99.835 80.057v18.36c-17.753-12.96-41.176-20.926-67.029-20.926h-27.541c-54.271 0-98.485 35.033-99.632 78.437-15.39-13.028-35.236-20.993-56.904-20.993h-48.331c-6.413-28.148 0.608-104.155-34.493-132.641-19.913-18.495-45.631 13.905-45.631 13.905 56.161 61.224 52.516 159.169 52.516 159.169 14.108 75.939-36.181 116.98-65.072 116.98-8.235 0-17.348-2.025-26.731-5.265 0 0-55.486-28.621-77.627-48.601-20.791-14.378-60.549-61.697-64.667-66.557l-1.013 1.418c-54.744-89.102 12.825-180.769 12.825-180.769 87.212-152.554 250.971-354.114 250.971-354.114 76.277-65.409 32.671-103.48 32.671-103.48l571.806-5.468 29.026 98.012c53.799 102.738 75.332 225.185 82.892 328.936-11.408-34.223-50.154-59.469-96.325-59.469zM888.929 379.553h27.541c36.316 0 67.097 21.668 67.097 47.386v298.29c0 25.651-30.781 47.386-67.097 47.386h-27.541c-36.316 0-67.029-21.668-67.029-47.386v-298.29c0-25.651 30.713-47.386 67.029-47.386zM500.187 560.12h27.541c36.383 0 67.029 21.668 67.029 47.386v298.222c0 25.651-30.646 47.386-67.029 47.386h-27.541c-36.316 0-67.097-21.736-67.097-47.386v-298.29c0.068-25.651 30.781-47.319 67.097-47.319zM694.592 482.628h27.541c36.316 0 67.029 21.668 67.029 47.386v298.222c0 25.651-30.713 47.386-67.029 47.386h-27.541c-36.383 0-67.097-21.668-67.097-47.386v-298.29c0-25.651 30.713-47.319 67.097-47.319z" />
</font>
</defs>
</svg>
